<?xml version="1.0" encoding="UTF-8" standalone="no"?>
<svg
   xmlns:dc="http://purl.org/dc/elements/1.1/"
   xmlns:cc="http://creativecommons.org/ns#"
   xmlns:rdf="http://www.w3.org/1999/02/22-rdf-syntax-ns#"
   xmlns:svg="http://www.w3.org/2000/svg"
   xmlns="http://www.w3.org/2000/svg"
   xmlns:sodipodi="http://sodipodi.sourceforge.net/DTD/sodipodi-0.dtd"
   xmlns:inkscape="http://www.inkscape.org/namespaces/inkscape"
   version="1.1"
   id="svg2"
   xml:space="preserve"
   width="384"
   height="384"
   viewBox="0 0 384 384"
   sodipodi:docname="A20XX Logo Wide-1.svg"
   inkscape:version="1.0.1 (3bc2e813f5, 2020-09-07)"><metadata
     id="metadata96"><rdf:RDF><cc:Work
         rdf:about=""><dc:format>image/svg+xml</dc:format><dc:type
           rdf:resource="http://purl.org/dc/dcmitype/StillImage" /><dc:title></dc:title></cc:Work></rdf:RDF></metadata><defs
     id="defs6"><clipPath
       clipPathUnits="userSpaceOnUse"
       id="clipPath16"><path
         d="M 0,288 H 288 V 0 H 0 Z"
         id="path14" /></clipPath></defs><sodipodi:namedview
     id="namedview4"
     pagecolor="#ffffff"
     bordercolor="#666666"
     borderopacity="1.0"
     inkscape:pageshadow="2"
     inkscape:pageopacity="0.0"
     inkscape:pagecheckerboard="0"
     inkscape:document-rotation="0"
     showgrid="false"
     inkscape:snap-global="false"
     inkscape:zoom="2.625"
     inkscape:cx="377.17891"
     inkscape:cy="214.67943"
     inkscape:window-width="2880"
     inkscape:window-height="1526"
     inkscape:window-x="-11"
     inkscape:window-y="-11"
     inkscape:window-maximized="1"
     inkscape:current-layer="g8" /><g
     id="g8"
     inkscape:groupmode="layer"
     inkscape:label="A20XX Logo Wide"
     transform="matrix(1.3333333,0,0,-1.3333333,0,384)"><g
       id="g10"><g
         id="g12"
         clip-path="url(#clipPath16)"><g
           id="g18"
           transform="translate(252.042,108.668)"><path
             id="path20"
             style="fill:#231f20;fill-opacity:1;fill-rule:nonzero;stroke:none"
             d="m -111.19141,-90.099609 c -10.05118,0.283602 -20.14971,1.374518 -29.88609,4.176201 -2.16358,0.643532 -4.39264,1.381286 -6.60805,1.983955 -6.95848,2.165438 -13.42624,5.336022 -19.94719,8.539029 -4.95264,2.542321 -9.50087,5.777935 -14.17245,8.783847 -4.97461,3.761375 -9.72009,7.956198 -14.32282,12.221059 -5.49682,5.448084 -10.48473,11.398988 -15.07471,17.623921 -5.60064,8.415385 -10.59383,17.291158 -14.14408,26.7775396 -1.12938,2.7548579 -2.33923,5.4835674 -3.13406,8.3612949 -1.82751,6.1604539 -2.92552,12.4919755 -4.04013,18.8270935 -0.92107,5.980739 -1.29972,11.936526 -1.20917,17.99043 -0.054,6.818185 0.2522,13.679975 1.62137,20.375331 1.39967,7.794714 2.93126,15.634093 6.04082,22.973507 2.56996,6.527869 5.31169,12.993428 8.91835,19.028238 3.19469,5.383353 6.55861,10.690653 10.55709,15.520673 5.66479,6.96862 12.08836,13.30887 18.98234,19.05563 5.72807,4.52678 11.72036,8.85216 18.05355,12.43217 3.83547,2.16801 7.871,3.94593 11.83772,5.85445 2.17248,1.02763 4.43756,1.83998 6.73208,2.54162 9.49007,3.62041 19.50457,5.75237 29.59622,6.78167 5.97665,0.61681 12.1155,0.69813 18.16257,0.50975 6.569585,-0.23318 13.131877,-0.8943 19.619115,-2.19412 5.881276,-1.43433 11.810739,-2.79285 17.452508,-5.02655 5.705676,-1.72301 10.986371,-4.54786 16.358365,-7.07745 4.521845,-2.34895 8.663113,-5.34384 12.918871,-8.12776 8.952734,-6.17319 16.835279,-13.77028 24.061269,-21.86372 C -4.7599614,106.62153 1.6594562,95.867756 6.5882672,84.618362 9.5611771,77.688708 12.189235,70.495304 13.677734,63.130859 14.055747,61.070013 14.418147,58.94497 14.850678,56.950478 16.770087,46.90056 17.030107,36.637867 16.537357,26.471114 16.279,19.327991 14.64969,12.339239 13.28087,5.3516032 12.498388,1.7978232 11.594206,-1.5945769 10.377886,-4.9922156 7.9192156,-10.868924 5.7447847,-16.892384 2.76574,-22.471935 c -2.20522926,-4.079371 -4.4216749,-8.163311 -7.0462159,-11.994237 -4.1823454,-6.278922 -9.0559801,-12.06793 -14.2499051,-17.529098 -3.900897,-4.272537 -8.485626,-7.834549 -12.854385,-11.602386 -4.744294,-3.851839 -9.96504,-7.17867 -15.275593,-10.251384 -7.60623,-3.898939 -15.250689,-7.961606 -23.477344,-10.268036 -4.49819,-1.331985 -8.967035,-2.809464 -13.590573,-3.664495 -8.446165,-1.664623 -17.052274,-2.157121 -25.630614,-2.35812 -0.61084,0.01336 -1.22168,0.02672 -1.83252,0.04008 z m -5.01757,12.951171 c -4.36854,7.406953 -8.4311,14.98675 -12.94727,22.306641 -0.24011,-3.347687 -0.432,-6.766196 0.42748,-10.048659 0.53652,-2.357562 1.66688,-4.525702 3.05494,-6.48845 2.28655,-3.474145 5.95048,-5.697296 9.65548,-7.394679 0.55388,-0.265545 1.44476,-0.843521 0.72017,0.07621 -0.3036,0.516311 -0.6072,1.032622 -0.9108,1.548933 z m 16.695308,-1.138671 c 7.731956,3.324598 13.079298,11.8229 12.173828,20.273437 -0.123272,0.940811 -0.247355,1.881516 -0.371094,2.822266 -2.243403,-3.318694 -4.149731,-6.841669 -6.101585,-10.334512 -2.540888,-4.577779 -5.327503,-9.015451 -7.716777,-13.677207 0.67188,0.305339 1.34375,0.610677 2.015628,0.916016 z m -8.351558,5.464843 c 4.24912,7.139292 8.39621,14.33478 12.52148,21.544922 -8.68157,0.05222 -17.36353,0.07451 -26.04492,-0.01758 4.15432,-7.623511 8.6176,-15.072014 12.86328,-22.644531 0.22005,0.372396 0.4401,0.744792 0.66016,1.117187 z m -27.8711,0.97461 c -0.9965,2.666602 -2.26713,5.294095 -2.46505,8.179206 -0.23249,2.745286 -0.19911,5.523573 0.0994,8.26174 0.73789,5.399083 3.24378,10.4989 6.81678,14.583697 1.75414,1.757179 3.63948,3.353482 5.35744,5.155044 -6.82112,2.006294 -13.44441,4.746741 -19.54102,8.421875 -2.44497,1.476771 -4.94634,3.182567 -7.23952,4.993526 -4.32994,3.120514 -7.59689,7.426871 -11.7097,10.801396 -1.17621,-5.478163 -1.55814,-11.125863 -1.04234,-16.708324 0.77788,-8.613051 3.34447,-17.117595 7.90172,-24.497449 5.21853,-8.617802 12.78567,-15.759562 21.60818,-20.60623 0.53314,-0.318291 1.27627,-0.885102 0.70977,0.09803 -0.16523,0.439164 -0.33046,0.878328 -0.49569,1.317493 z m 56.449221,0.02148 c 3.360521,2.208588 6.673592,4.537076 9.624533,7.277512 7.943948,7.888544 13.832525,17.985769 16.082796,29.001861 1.980194,7.573007 1.875647,15.576999 0.340512,23.220032 -0.01171,0.919394 -0.681797,-0.420988 -1.018272,-0.616298 -6.215194,-6.974956 -13.661604,-12.914965 -22.088246,-16.996756 -4.676457,-2.561805 -9.799419,-4.125613 -14.82023,-5.851195 2.799196,-2.327894 5.60599,-4.781636 7.644468,-7.75276 1.932859,-2.932695 3.593526,-6.104316 4.385262,-9.550056 1.52734,-6.262153 0.747782,-12.939542 -1.643699,-18.883383 -0.210475,-0.580915 -0.668389,-1.474699 0.189325,-0.70496 0.434517,0.285334 0.869034,0.570669 1.303551,0.856003 z m 18.917968,2.740234 c 3.678704,1.519205 7.089146,3.598693 10.567037,5.512534 5.928716,3.900492 11.964539,7.725025 17.185592,12.568898 6.099432,4.864489 11.004528,10.996446 15.887998,17.025005 3.111644,4.181328 5.852941,8.623709 8.5393637,13.085116 3.9748281,6.943773 6.8023124,14.4670121 9.3434472,22.0311038 C 5.6568453,15.492843 7.435281,30.784338 5.7127491,45.761137 5.5904004,46.532164 5.4680518,47.303191 5.3457031,48.074219 3.546489,44.201041 2.6145335,39.992433 0.5726414,36.22113 -3.8872768,25.923514 -11.579461,17.176876 -20.575681,10.642692 -26.830529,6.0939977 -33.856293,2.5955914 -41.397483,0.70673837 -42.58246,0.40551884 -43.781127,0.16361657 -44.982422,-0.0625 c -0.713514,-1.1889239 -2.081097,-2.3193377 -1.6875,-3.8632812 1.018481,-3.080777 1.757574,-6.3020348 2.228516,-9.4902348 0.88784,-6.092141 0.868,-12.315601 0.152036,-18.375812 -1.426048,-12.290428 -6.930807,-23.94809 -14.678422,-33.467068 -1.295757,-1.582612 -2.677728,-3.091684 -3.911114,-4.725479 0.836588,0.299479 1.673177,0.598958 2.509765,0.898437 z m -96.847659,2.091797 c -4.45465,4.772098 -7.93758,10.481072 -10.66601,16.285711 -1.99019,4.250739 -3.7819,8.635196 -4.66182,13.265546 -0.8436,4.205323 -1.26948,8.40929 -1.46781,12.679212 -0.0272,6.806274 0.69522,13.677891 2.70556,20.2333916 0.32473,1.1354316 1.00716,2.5698837 0.0745,3.59863978 -0.92488,0.68821892 -2.15727,0.75048645 -3.23859,1.06899307 -2.55919,0.52118111 -5.15202,1.00189235 -7.54145,2.10137675 -4.29843,1.7548548 -8.56838,3.6649241 -12.52529,6.1574812 -2.36451,1.5845229 -4.5929,3.3623306 -6.86898,5.0658516 -4.89715,4.157574 -8.96229,9.192587 -12.70925,14.382887 -3.24443,4.726592 -5.43945,10.060244 -7.4776,15.388782 -0.32037,0.700085 -0.64074,1.400169 -0.96111,2.100253 -0.85788,-5.392806 -0.7249,-10.888507 -0.37726,-16.320421 0.35161,-4.696152 0.88846,-9.381526 1.59759,-14.03606 1.99396,-10.2863082 5.05321,-20.4113042 9.5785,-29.877894 1.68798,-3.335348 3.53404,-6.589883 5.33259,-9.86408 3.31857,-5.107104 6.79957,-10.126448 10.81869,-14.71263 7.79552,-9.376984 17.43925,-17.067951 27.75888,-23.493602 3.04642,-2.095474 6.4965,-3.842551 9.96058,-5.278018 0.74035,-0.254984 1.48071,-0.509967 2.22106,-0.764951 -0.51758,0.673177 -1.03516,1.346354 -1.55274,2.019531 z m 48.71289,23.40625 c 4.04595,0.01645 8.09482,0.03548 12.134769,0.277344 -2.396498,1.30359 -4.871949,2.559956 -7.587599,3.027415 -4.91206,0.938092 -10.10526,0.152775 -14.61057,-1.973471 -0.58368,-0.307695 -1.16736,-0.61539 -1.75105,-0.923085 2.85769,-0.441153 5.75502,-0.319895 8.63664,-0.392002 1.05922,-0.0135 2.11854,-0.01108 3.17781,-0.0162 z m -8.55664,16.572266 c -5.80212,10.151491 -11.61267,20.2981584 -17.42578,30.4433594 -7.1195,-3.14540272 -14.99085,-4.871773 -22.82848,-5.1353857 -0.93282,-0.024084 -1.86564,-0.047976 -2.79847,-0.071646 3.53269,-5.4611457 8.07315,-10.2451421 13.28772,-14.1254711 4.48156,-3.339684 9.37527,-6.142763 14.5421,-8.274357 5.19376,-1.923772 10.57365,-3.316273 16.03151,-4.248609 -0.26953,0.470703 -0.53907,0.941406 -0.8086,1.412109 z m 17.277347,-1.087891 c 8.270792,0.89892 16.205824,3.871985 23.455191,7.873975 7.733609,4.609062 14.428294,10.8739373 19.752176,18.1198212 0.80014,0.6976294 -0.526947,0.3377154 -0.972173,0.4162153 -5.910015,-0.1483869 -11.901176,0.69565491 -17.55746,2.1778795 -2.784851,0.7318397 -5.521729,1.6327951 -8.224609,2.6230469 -5.935639,-10.4877188 -11.94327,-20.9344789 -17.937502,-31.3925779 0.49479,0.06055 0.98959,0.121093 1.484377,0.18164 z m -8.677737,7.16211 c 5.68247,9.40581 11.14632,18.9378772 16.701174,28.4199216 -3.25671,1.8897063 -6.385422,4.1350684 -9.251954,6.6582034 -2.83192,2.48817 -5.52026,5.344876 -7.94771,8.298786 -3.44092,-3.319113 -6.47185,-7.225223 -10.38627,-10.087849 -2.21374,-1.656203 -4.52797,-3.1692925 -6.77344,-4.7812498 5.55061,-9.934968 11.37602,-19.7097882 17,-29.6035152 0.2194,0.365234 0.4388,0.730468 0.6582,1.095703 z m 47.009768,28.9960935 c -3.279774,4.7421685 -7.034562,9.2139445 -11.58789,12.7871095 -1.870279,-3.406376 -3.837354,-6.757062 -5.775391,-10.125 5.152888,-2.4231923 10.842823,-3.3208105 16.467106,-3.8210424 0.616449,-0.060794 1.232864,-0.1219346 1.8493,-0.182864 -0.317708,0.4472657 -0.635417,0.8945313 -0.953125,1.3417969 z M -155.74609,6.8867188 c 5.82178,0.299819 11.44319,1.9992901 16.95312,3.7871092 -1.88644,3.458149 -3.9028,6.821019 -5.82617,10.246094 -4.8515,-3.875932 -8.83845,-8.693762 -12.434,-13.7252382 -0.77325,-0.7139793 0.56694,-0.2706331 0.99089,-0.3290164 0.10539,0.00702 0.21077,0.014034 0.31616,0.021051 z m 105.076168,1.5859374 c 4.25865,9.7969878 6.558509,20.6668838 5.482422,31.3261718 -0.44913,7.036127 -2.865367,13.720369 -4.886719,20.414063 -6.217134,-10.754877 -12.487435,-21.478827 -18.669922,-32.253907 7.018054,-5.39744 12.76064,-12.355091 17.032434,-20.0918736 0.322801,-0.8391225 0.592819,-0.8548824 0.804613,0.037603 0.07906,0.1893143 0.158115,0.3786287 0.237172,0.567943 z M -165.47461,9.4238281 c 4.20859,6.3883719 8.98748,12.5010809 14.93241,17.4061519 0.57187,0.460095 1.14785,0.915213 1.71993,1.375098 -5.99071,10.539673 -12.09097,21.012292 -18.16992,31.501953 -1.45224,-5.227915 -3.47908,-10.335558 -4.10161,-15.759476 -1.45133,-8.787481 -0.3893,-17.77944 1.54825,-26.404319 0.83462,-3.200732 2.19269,-6.229838 3.24086,-9.3615954 0.2767,0.4140625 0.55339,0.828125 0.83008,1.2421875 z m -11.14258,1.2480469 c -1.24901,4.488498 -2.55294,9.030044 -3.21093,13.609375 -0.48892,3.061447 -0.41882,6.165756 -0.57618,9.251953 -0.11846,5.794686 0.55781,11.539256 1.74611,17.188261 0.30068,1.432065 0.64863,2.85348 0.98046,4.278536 -2.91643,-1.23629 -5.9376,-2.201099 -9.11881,-2.58839 -2.55041,-0.342621 -5.27304,-0.338187 -7.76205,-0.02684 -3.7944,0.456474 -7.4424,1.769163 -10.82093,3.520798 -4.44093,2.466236 -7.84171,6.327445 -11.1947,10.057327 0.34439,-6.426294 0.61764,-12.966387 2.69841,-19.116285 3.80189,-13.178165 12.92074,-24.586193 24.58442,-31.706735 3.97776,-2.722687 8.64243,-4.12269 13.07459,-5.9035429 -0.13346,0.4785156 -0.26692,0.9570309 -0.40039,1.4355469 z m 137.482424,-0.404297 c 12.518637,4.112751 22.946426,13.384913 29.6107064,24.629479 1.7241588,2.861193 3.1632398,5.886401 4.2443628,9.048465 2.5738788,7.128025 3.948415,14.737531 3.5439966,22.327236 -0.019466,0.615938 0.095582,1.637077 -0.4626318,0.630126 -2.1521122,-2.812252 -4.3798231,-5.501043 -7.2553701,-7.567419 -2.1728629,-1.554149 -4.6025779,-2.706172 -6.9885899,-3.889878 -2.180225,-1.062416 -4.567899,-1.553949 -6.931307,-2.012159 -4.188143,-0.672645 -8.433349,-0.158195 -12.524839,0.662275 -1.106235,0.23644 -2.212617,0.472196 -3.318359,0.710938 1.199314,-4.090689 2.054932,-8.399448 2.466797,-12.570313 0.646145,-6.503496 0.437347,-13.215525 -0.493063,-19.742285 -0.6791,-4.329095 -2.040836,-8.506333 -3.268656,-12.7010742 0.458985,0.1582031 0.917969,0.3164062 1.376953,0.4746092 z m -48.21289,5.167969 c 2.162223,3.638902 4.242629,7.325721 6.205078,11.076172 -3.537003,1.59637 -7.010771,3.39277 -10.779035,4.396823 -3.284566,0.946625 -6.641592,1.607411 -9.978777,2.337552 -0.68965,-1.277888 -1.37787,-2.55655 -2.06836,-3.833985 4.386251,-5.888399 10.028264,-10.753607 16.222656,-14.65625 0.132813,0.226563 0.265625,0.453125 0.398438,0.679688 z m -42.417964,-0.138672 c 3.7329,2.605312 7.67322,5.031621 10.71093,8.478516 1.66471,1.810091 3.22314,3.711693 4.85742,5.548828 -0.55929,1.182954 -1.11716,2.366584 -1.67382,3.550781 -7.43285,-0.537823 -14.46207,-3.324041 -21.10157,-6.548828 2.02429,-3.91698 4.36051,-7.659288 6.53907,-11.490234 0.22265,0.153645 0.44531,0.307291 0.66797,0.460937 z m -10.81446,18.560547 c 3.41302,1.401872 6.68998,3.112313 10.11275,4.488632 3.37598,1.29055 7.02433,2.09236 10.62553,2.683243 -0.90191,3.433811 -2.05838,6.738091 -2.75586,10.210937 -0.34944,1.916212 -0.56911,4.050477 -0.78779,6.059781 -0.1309,1.27607 -0.19175,2.557454 -0.24541,3.838657 -11.1797,0.0066 -22.35953,0.04342 -33.53906,-0.03711 5.2496,-9.213496 10.82999,-18.235998 15.96875,-27.513671 0.20703,0.08984 0.41406,0.179687 0.62109,0.269531 z m 64.087892,0.375 c 5.236125,8.920112 10.389728,17.884763 15.525391,26.863281 -11.181439,0.09075 -22.363266,0.04814 -33.544922,0.04492 -0.324702,-3.986134 -0.563862,-7.939523 -1.467906,-11.835222 -0.696123,-2.773992 -1.511384,-5.516162 -2.274281,-8.2722 7.093761,-0.789868 13.77711,-3.543808 20.091146,-6.749826 0.466639,-0.05594 1.190802,-0.975114 1.468322,-0.397351 0.06742,0.115465 0.134834,0.230931 0.20225,0.346396 z M -106.9707,42.40625 c 2.30878,5.98284 3.76591,12.316084 4.03906,18.732422 -4.09114,0.0133 -8.18229,0.01586 -12.27344,0.0039 0.37392,-6.333886 1.55784,-12.695596 4.13281,-18.517578 0.80411,-1.126956 2.27391,-0.602602 3.4158,-0.712215 0.50869,-0.161432 0.54775,0.04634 0.68577,0.493465 z m -74.89844,20.373047 c 2.68234,1.349244 5.37538,2.87405 7.30043,5.237188 4.00243,4.465467 5.67212,10.726973 4.98614,16.632717 -0.0441,0.606516 -0.0882,1.213032 -0.13227,1.819548 -4.80397,-8.285887 -9.69992,-16.513704 -14.40625,-24.855469 0.75065,0.388672 1.5013,0.777344 2.25195,1.166016 z m -16.375,1.119141 c -3.42162,5.917224 -6.88416,11.810471 -10.28487,17.738466 -0.92066,1.550427 -2.02476,2.978635 -3.05888,4.45294 -0.055,-4.14409 -0.15222,-8.450572 1.48585,-12.346611 1.78625,-4.349725 5.22572,-7.896188 9.34227,-10.114327 1.22784,-0.662116 2.50173,-1.236184 3.75,-1.859375 -0.41145,0.709636 -0.82291,1.419271 -1.23437,2.128907 z m 162.115234,1.273437 c -4.095199,7.489498 -8.410654,14.856378 -12.792969,22.181641 0.09182,-4.424435 -0.243158,-9.078654 1.620732,-13.217396 2.187668,-4.652946 6.200042,-8.340173 10.912685,-10.348167 0.344428,-0.06799 1.572249,-0.971067 1.249282,-0.408154 -0.32991,0.597359 -0.65982,1.194717 -0.98973,1.792076 z m 17.142578,-1.203125 c 3.948185,1.563438 7.1669,4.644199 9.3922455,8.210588 2.3286334,4.111262 3.1232577,8.952083 2.7233513,13.627856 -0.09909,0.348835 0.0945,1.858391 -0.2291737,1.316564 C -11.903241,79.223758 -16.487132,71.194196 -21,63.125 c 0.671224,0.28125 1.342448,0.5625 2.013672,0.84375 z m -170.962892,4.310547 c 4.11877,7.142636 8.30233,14.248553 12.24414,21.490234 -8.58384,0.07172 -17.16819,0.07952 -25.75195,-0.0078 4.1534,-7.612686 8.60428,-15.057517 12.85351,-22.617188 0.2181,0.378255 0.4362,0.756511 0.6543,1.134766 z m 162.755861,1.121094 c 4.024519,7.182791 8.295769,14.26333 12.208984,21.527343 -8.676341,0.05989 -17.353006,0.06231 -26.029297,-0.0078 4.306566,-7.60061 8.709021,-15.144639 13.181641,-22.648438 0.21289,0.376302 0.425781,0.752605 0.638672,1.128907 z m -48.804688,1.123047 c 6.569097,0.0084 13.138078,0.04358 19.707031,0.08594 -3.326647,5.114964 -7.533656,9.63087 -12.333684,13.390787 -3.780479,2.962667 -7.84549,5.582661 -12.142806,7.729255 -7.167881,3.269695 -14.862432,5.57137 -22.764584,5.970775 -0.8571,0.233877 0.1081,-0.764152 0.16686,-1.149411 3.11578,-6.261875 6.341482,-12.620111 7.558999,-19.575393 0.392059,-2.104451 0.604806,-4.235929 0.857012,-6.360154 6.316961,-0.05807 12.633941,-0.09037 18.951172,-0.0918 z m -38.005863,0.0098 c 3.56185,0 7.1237,0 10.68555,0 -0.80708,6.494735 -2.80334,12.798445 -5.58309,18.711206 -0.25561,0.792908 -0.51122,-0.716987 -0.76683,-1.017255 -2.57151,-5.607299 -4.41641,-11.567325 -5.20672,-17.693951 0.29036,0 0.58073,0 0.87109,0 z m -9.95703,0.01758 c 0.8313,-0.282682 0.69909,0.569844 0.8213,1.122291 0.64343,3.965098 1.32111,7.991571 2.50309,11.771262 1.73851,4.976893 3.88046,9.815316 6.53108,14.375978 -4.78584,-0.556351 -9.50394,-1.598968 -14.09986,-3.040117 -4.69388,-1.370319 -9.24498,-3.317903 -13.28001,-6.105399 -5.29317,-3.338178 -10.44021,-7.073276 -14.44524,-11.934066 -1.69194,-1.992121 -3.24558,-4.09381 -4.81551,-6.182136 12.26173,-0.01974 24.52341,-0.02457 36.78515,-0.0078 z m -35.52344,15.072266 c 4.31527,3.623402 8.37467,7.628551 13.29786,10.363093 7.51529,4.41777 15.64329,7.97603 24.26317,9.52032 0.9101,0.053 0.98343,0.28518 0.16176,0.70892 -2.19569,1.49214 -4.21118,3.22794 -6.37708,4.75728 -4.75401,3.16404 -10.09395,5.3376 -15.51141,7.07375 -7.10976,2.01179 -14.61828,3.13976 -21.98147,1.99707 -8.71803,-1.14039 -17.25952,-3.93703 -24.77601,-8.53742 -0.22816,-0.23889 -1.68151,-0.73865 -1.00696,-0.78534 4.61148,-0.51065 9.33704,-0.74383 13.50903,-2.88999 4.833,-2.17758 8.91178,-5.81287 12.10193,-10.000727 2.2704,-3.942383 4.5034,-8.032839 5.26611,-12.575136 -0.0272,-0.995275 0.69123,0.231042 1.05307,0.36818 z m 101.851568,1.837891 c 1.392395,7.200896 5.70624,13.727352 11.569527,18.082902 4.865924,3.13806 10.362256,5.61015 16.219459,5.90453 0.506074,0.0833 1.504627,0.0598 1.700251,0.21043 -4.067814,2.41912 -8.330219,4.54119 -12.847151,5.9853 -7.157755,2.3274 -14.797714,3.31179 -22.299743,2.56141 -11.495966,-1.25003 -22.884187,-5.4428 -31.706289,-13.05543 -0.452957,-0.3872 -0.905803,-0.77454 -1.358711,-1.1618 4.071856,-1.04805 8.220376,-1.94558 12.119271,-3.33061 4.021503,-1.57163 8.012263,-3.265487 11.731947,-5.472614 5.452061,-2.811562 9.93287,-7.078932 14.617532,-10.9624 0.08464,0.412761 0.169271,0.825521 0.253907,1.238282 z M -190.83203,98.046875 c 3.85649,0.0071 7.7154,0.05309 11.56445,0.310547 -2.4621,1.320958 -5.01143,2.579858 -7.79689,3.031408 -4.83393,0.91028 -9.96587,-0.0292 -14.18222,-2.558581 -0.41227,-0.261221 -1.64181,-0.708624 -0.48987,-0.613508 3.63107,-0.186177 7.26987,-0.13326 10.90453,-0.169866 z m 162.841796,1.142578 c 3.016646,0.03258 6.044173,-0.0045 9.051714,0.21241 0.661147,0.100421 1.322295,0.200841 1.983442,0.301262 -2.074001,1.164055 -4.325237,1.967425 -6.617609,2.580935 -3.763415,1.03081 -7.732281,0.34569 -11.361728,-0.87392 -1.401541,-0.37377 -2.703574,-0.99038 -3.964023,-1.699202 1.438016,-0.308093 2.88874,-0.486957 4.361264,-0.444112 2.181952,-0.0542 4.364355,-0.07485 6.54694,-0.07737 z m -81.273436,7.441407 c 1.35662,-0.04 2.59661,0.70536 3.40969,1.75514 10.745741,11.1152 25.33758,18.73019 40.813035,20.16692 3.798781,0.33277 7.786204,0.32824 11.647238,0.0419 3.911305,-0.27893 7.784927,-0.92714 11.625101,-1.80525 0.760759,-0.10303 1.521519,-0.20606 2.282278,-0.30909 -2.623263,2.49359 -5.699159,4.43962 -8.758863,6.34707 -6.921415,4.20852 -14.358056,7.5007 -21.883043,10.46335 -3.487547,1.19222 -7.093645,1.99505 -10.598328,3.13489 -6.62039,1.85956 -13.499832,2.461 -20.317458,3.13634 -15.84755,1.11019 -31.80966,-1.57708 -46.77434,-6.75396 -4.66581,-1.83599 -9.28303,-3.79801 -13.78037,-6.01852 -4.67762,-2.17197 -8.83037,-5.27818 -13.04691,-8.20697 -0.59143,-0.49435 -1.18285,-0.98871 -1.77428,-1.48306 1.75459,0.12056 3.47956,0.4324 5.20508,0.75781 3.138,0.51365 6.53282,0.84848 9.76051,0.92756 10.70315,0.29827 21.53497,-1.921 31.05075,-6.89464 7.41188,-3.64836 13.90379,-8.94867 19.5403,-14.94698 0.51006,-0.19914 1.05043,-0.31738 1.59961,-0.3125 z" /></g></g></g></g></svg>
