<?xml version="1.0" standalone="no"?>
<!DOCTYPE svg PUBLIC "-//W3C//DTD SVG 20010904//EN"
 "http://www.w3.org/TR/2001/REC-SVG-20010904/DTD/svg10.dtd">
<svg version="1.0" xmlns="http://www.w3.org/2000/svg"
 width="633.000000pt" height="328.000000pt" viewBox="0 0 633.000000 328.000000"
 preserveAspectRatio="xMidYMid meet">

<g transform="translate(0.000000,328.000000) scale(0.100000,-0.100000)"
fill="#000000" stroke="none">
<path d="M771 2927 c-39 -19 -64 -63 -74 -125 -5 -31 -11 -207 -14 -391 l-4
-334 27 -91 c14 -50 35 -109 45 -132 21 -49 71 -94 105 -94 18 0 25 -7 30 -27
3 -16 7 -34 10 -40 2 -9 26 -13 74 -13 l70 0 0 -158 c0 -215 -12 -202 188
-202 86 0 162 4 168 8 16 10 94 176 109 232 l12 45 389 8 c403 8 455 5 468
-31 3 -9 20 -42 37 -72 27 -47 32 -66 33 -125 1 -69 0 -71 -41 -115 -29 -30
-48 -62 -59 -100 -9 -30 -26 -82 -37 -115 -11 -33 -24 -78 -28 -100 -4 -22
-15 -65 -24 -95 -9 -30 -18 -78 -21 -107 -2 -28 -9 -64 -14 -78 -17 -45 -12
-300 7 -359 48 -150 22 -140 373 -144 185 -3 310 0 355 7 39 7 84 14 101 16
17 3 40 14 52 25 12 11 26 20 31 20 5 0 17 7 26 16 15 15 16 56 9 443 -7 398
-6 429 11 454 l17 27 305 0 c292 0 306 -1 334 -21 28 -20 34 -20 786 -16 495
3 772 8 798 15 136 36 161 45 173 60 7 9 12 46 12 91 0 80 -17 300 -25 338 -8
37 -56 52 -226 76 -181 24 -186 27 -174 104 4 28 12 46 23 49 9 3 26 10 37 14
11 5 56 11 99 15 46 3 92 13 108 23 26 15 28 21 28 78 l0 61 121 7 c67 4 130
11 139 16 39 21 55 95 55 255 0 141 -2 153 -27 207 -14 31 -35 61 -47 67 -14
8 -118 10 -353 5 l-333 -6 -85 86 -85 86 -681 0 c-594 0 -683 2 -694 15 -11
13 -61 15 -341 15 -318 0 -329 1 -339 20 -10 20 -21 20 -463 20 l-452 0 -23
-35 c-28 -44 -47 -44 -73 0 l-21 35 -354 0 c-343 0 -354 1 -364 20 -9 16 -21
20 -64 20 -40 0 -57 5 -71 20 -14 16 -31 20 -74 20 -31 0 -67 -6 -80 -13z
m2931 -1294 c68 -71 79 -107 76 -245 l-3 -121 -35 -18 c-31 -17 -60 -19 -287
-19 l-252 0 -18 33 c-15 26 -19 63 -21 205 l-4 172 51 0 51 0 0 -140 0 -140
47 0 c37 0 57 -7 99 -36 36 -25 65 -37 91 -38 51 -1 55 23 9 55 -56 38 -86 93
-86 160 0 32 5 61 10 64 6 3 10 16 10 28 1 38 33 65 81 70 132 11 142 10 181
-30z"/>
</g>
</svg>
