<?xml version="1.0" encoding="UTF-8" standalone="no"?>
<svg
   xmlns:dc="http://purl.org/dc/elements/1.1/"
   xmlns:cc="http://creativecommons.org/ns#"
   xmlns:rdf="http://www.w3.org/1999/02/22-rdf-syntax-ns#"
   xmlns:svg="http://www.w3.org/2000/svg"
   xmlns="http://www.w3.org/2000/svg"
   xmlns:sodipodi="http://sodipodi.sourceforge.net/DTD/sodipodi-0.dtd"
   xmlns:inkscape="http://www.inkscape.org/namespaces/inkscape"
   version="1.1"
   id="svg968"
   width="411.42856"
   height="350.4762"
   viewBox="0 0 411.42856 350.4762"
   sodipodi:docname="Phaser1.svg"
   inkscape:version="1.0.1 (3bc2e813f5, 2020-09-07)">
  <metadata
     id="metadata974">
    <rdf:RDF>
      <cc:Work
         rdf:about="">
        <dc:format>image/svg+xml</dc:format>
        <dc:type
           rdf:resource="http://purl.org/dc/dcmitype/StillImage" />
        <dc:title></dc:title>
      </cc:Work>
    </rdf:RDF>
  </metadata>
  <defs
     id="defs972" />
  <sodipodi:namedview
     pagecolor="#ffffff"
     bordercolor="#666666"
     borderopacity="1"
     objecttolerance="10"
     gridtolerance="10"
     guidetolerance="10"
     inkscape:pageopacity="0"
     inkscape:pageshadow="2"
     inkscape:window-width="2880"
     inkscape:window-height="1526"
     id="namedview970"
     showgrid="false"
     inkscape:zoom="2.8760869"
     inkscape:cx="205.71428"
     inkscape:cy="175.2381"
     inkscape:window-x="-11"
     inkscape:window-y="-11"
     inkscape:window-maximized="1"
     inkscape:current-layer="g976" />
  <g
     inkscape:groupmode="layer"
     inkscape:label="Image"
     id="g976">
    <path
       style="fill:#000000;stroke-width:1.69312"
       d="m 138.04529,299.32915 c -7.03125,-2.26235 -8.10034,-3.25248 -9.06524,-8.39582 -0.92129,-4.91093 -0.26461,-6.83706 4.16181,-12.20708 3.97716,-4.82498 5.24667,-8.03276 5.21853,-13.18609 -0.0434,-7.94852 -4.29761,-18.08753 -10.84235,-25.84044 -3.44746,-4.08386 -5.08596,-8.55321 -6.41265,-17.49191 -1.82153,-12.27264 -7.30821,-21.89035 -12.48795,-21.89035 -2.75387,0 -3.09028,-5.19677 -0.84353,-13.03074 1.69959,-5.92615 2.57796,-5.41357 -13.898694,-8.11051 -4.59135,-0.75153 -6.96609,-2.23494 -8.3141,-5.19348 -1.41532,-3.10629 -3.30025,-4.19436 -7.54113,-4.3531 -3.10978,-0.11641 -6.41606,-0.40212 -7.34728,-0.63492 -0.93121,-0.23281 -2.41195,-0.51852 -3.29052,-0.63492 -0.87857,-0.11641 -2.94514,-2.49319 -4.59238,-5.28175 -2.13515,-3.61453 -4.71454,-5.35622 -8.98461,-6.06671 -18.62182,-3.09848 -26.76429,-8.44139 -27.80987,-18.24824 -0.2508,-2.35237 -1.43616,-5.45805 -2.63412,-6.90151 -3.00003,-3.61481 -0.74839,-17.83364 3.44721,-21.76881 1.77616,-1.6659 3.22938,-4.45988 3.22938,-6.20883 0,-1.74896 1.47954,-6.631557 3.28787,-10.850217 4.09666,-9.55711 12.8339,-15.635071 26.46505,-18.410094 5.51949,-1.123654 10.41639,-2.445076 10.88199,-2.936493 0.46561,-0.491416 3.13228,-2.088525 5.92593,-3.54913 3.4967,-1.828182 4.89191,-3.674619 4.47774,-5.925926 -0.33089,-1.798654 -0.97602,-6.891817 -1.43362,-11.318138 -0.76892,-7.437665 -0.38311,-8.496747 5.08839,-13.968254 8.98103,-8.981026 15.341794,-8.319259 40.739444,4.238486 27.47858,13.586645 37.44343,15.969761 61.18096,14.631567 19.75832,-1.113867 32.70044,-4.780113 48.71808,-13.800872 13.52735,-7.618281 27.37659,-10.966406 45.25017,-10.93946 12.29775,0.01854 17.79897,0.802281 23.36609,3.328884 14.26602,6.47455 53.60664,48.27462 69.33069,73.665057 4.91576,7.93772 6.68817,18.53696 3.70154,22.13563 -1.22794,1.47956 -2.35192,3.95988 -2.49775,5.51182 -1.11771,11.89425 -6.79383,21.25717 -17.98047,29.65922 -6.90945,5.18953 -11.58148,13.56392 -11.58148,20.75921 0,2.6163 3.7707,12.78688 8.37933,22.60126 10.62378,22.62412 15.32437,40.58232 15.32437,58.54549 0,17.10341 -2.21203,24.12482 -8.0629,25.5933 -6.35289,1.59448 -75.47142,-2.59102 -82.39385,-4.98937 -6.94879,-2.40751 -41.25956,-1.07236 -43.02765,1.67434 -0.61532,0.95589 -3.40448,2.16291 -6.19813,2.68229 -2.79365,0.51937 -11.55556,2.57316 -19.4709,4.56398 -19.31563,4.85815 -59.79111,6.29825 -71.4634,2.54263 z m 71.88796,-22.1942 c 6.75891,-3.49516 8.59136,-5.35773 12.27014,-12.47169 7.35447,-14.22198 -4.59708,-70.47424 -17.34872,-81.65513 -6.32037,-5.54182 -14.51029,-8.34887 -24.81478,-8.50513 -11.35336,-0.17217 -20.50244,3.62478 -22.28768,9.24958 -0.52717,1.66094 -1.51811,3.0199 -2.20211,3.0199 -0.68399,0 -0.74284,4.76191 -0.13077,10.58202 0.76368,7.26181 3.55457,15.89445 8.89505,27.51363 4.28021,9.31239 9.28872,23.40153 11.13002,31.30921 2.70976,11.63733 4.34389,15.26759 8.57404,19.04721 6.19679,5.53685 17.31682,6.35659 25.91482,1.9104 z m 109.25161,-8.34206 c 3.11979,-2.1852 3.76298,-4.24153 3.76298,-12.03075 0,-10.07177 -3.81103,-27.07019 -7.79742,-34.77902 -1.48749,-2.87648 -6.24571,-6.64654 -12.15101,-9.62753 -9.55122,-4.82144 -9.78694,-5.11746 -14.76808,-18.54644 -3.5953,-9.6928 -6.19023,-14.1609 -8.95609,-15.42111 -7.31207,-3.3316 -11.49552,-2.1269 -16.20296,4.66593 -5.37808,7.76057 -5.84834,18.05247 -1.79999,39.39362 4.59698,24.2333 12.12629,38.88562 23.56724,45.86276 6.70016,4.08601 28.7582,4.39592 34.34533,0.48254 z"
       id="path980" />
  </g>
</svg>
