<?xml version="1.0" encoding="UTF-8" standalone="no"?>
<svg
   xmlns:dc="http://purl.org/dc/elements/1.1/"
   xmlns:cc="http://creativecommons.org/ns#"
   xmlns:rdf="http://www.w3.org/1999/02/22-rdf-syntax-ns#"
   xmlns:svg="http://www.w3.org/2000/svg"
   xmlns="http://www.w3.org/2000/svg"
   xmlns:sodipodi="http://sodipodi.sourceforge.net/DTD/sodipodi-0.dtd"
   xmlns:inkscape="http://www.inkscape.org/namespaces/inkscape"
   version="1.1"
   id="svg24"
   width="1845.5026"
   height="1134.3915"
   viewBox="0 0 1845.5026 1134.3915"
   sodipodi:docname="Gen7 Phaser.svg"
   inkscape:version="1.0.1 (3bc2e813f5, 2020-09-07)">
  <metadata
     id="metadata30">
    <rdf:RDF>
      <cc:Work
         rdf:about="">
        <dc:format>image/svg+xml</dc:format>
        <dc:type
           rdf:resource="http://purl.org/dc/dcmitype/StillImage" />
        <dc:title></dc:title>
      </cc:Work>
    </rdf:RDF>
  </metadata>
  <defs
     id="defs28" />
  <sodipodi:namedview
     pagecolor="#ffffff"
     bordercolor="#666666"
     borderopacity="1"
     objecttolerance="10"
     gridtolerance="10"
     guidetolerance="10"
     inkscape:pageopacity="0"
     inkscape:pageshadow="2"
     inkscape:window-width="2880"
     inkscape:window-height="1526"
     id="namedview26"
     showgrid="false"
     inkscape:zoom="0.76943811"
     inkscape:cx="922.75128"
     inkscape:cy="567.19574"
     inkscape:window-x="-11"
     inkscape:window-y="-11"
     inkscape:window-maximized="1"
     inkscape:current-layer="g32" />
  <g
     inkscape:groupmode="layer"
     inkscape:label="Image"
     id="g32">
    <path
       style="fill:#000000;stroke-width:1.69312"
       d="m 355.15612,1072.435 c -2.38163,-0.4587 -3.80953,-1.9589 -3.80953,-4.0022 0,-2.9387 -1.28125,-3.2685 -12.69841,-3.2685 -11.56966,0 -12.69841,-0.301 -12.69841,-3.3863 0,-2.9662 -1.12875,-3.3862 -9.10053,-3.3862 -13.82214,0 -19.68254,-1.5754 -19.68254,-5.291 0,-2.6808 -1.31688,-3.1746 -8.46561,-3.1746 -7.90124,0 -8.46561,-0.2822 -8.46561,-4.2328 0,-4.1119 -0.33862,-4.2328 -11.85185,-4.2328 -10.7231,0 -11.85185,-0.3225 -11.85185,-3.3863 0,-2.8845 -1.12875,-3.3862 -7.61905,-3.3862 -6.99823,0 -7.61904,-0.3449 -7.61904,-4.2328 0,-3.3863 -0.84656,-4.2328 -4.23281,-4.2328 -3.10405,0 -4.2328,-0.903 -4.2328,-3.3863 0,-2.2575 -1.12876,-3.3862 -3.38625,-3.3862 -2.48325,0 -3.38624,-1.1288 -3.38624,-4.2328 0,-3.3863 -0.84656,-4.2328 -4.2328,-4.2328 -3.10405,0 -4.23281,-0.903 -4.23281,-3.3863 0,-2.2019 -1.12875,-3.3862 -3.22736,-3.3862 -2.58885,0 -3.45772,-1.6749 -4.39168,-8.46557 -0.93396,-6.7907 -1.80284,-8.4656 -4.39169,-8.4656 -3.05549,0 -3.22736,-1.6315 -3.22736,-30.6347 0,-29.2108 0.15746,-30.6759 3.38624,-31.5203 2.47152,-0.6463 3.39127,-2.3186 3.40489,-6.1907 0.0399,-11.3721 1.98559,-18.0035 5.28225,-18.0035 2.85645,0 3.16471,-1.4844 3.16471,-15.2381 0,-15.12525 0.0313,-15.23813 4.23281,-15.23813 4.15666,0 4.2328,-0.23986 4.2328,-13.33333 0,-16.41131 1.39456,-23.91534 4.44445,-23.91534 1.57479,0 2.32804,-2.12282 2.32804,-6.56085 0,-11.33515 1.79251,-17.14286 5.291,-17.14286 2.80171,0 3.17461,-1.39212 3.17461,-11.85185 0,-10.7231 0.3225,-11.85185 3.38624,-11.85185 3.13541,0 3.38624,-1.12875 3.38624,-15.2381 0,-15.12521 0.0313,-15.23809 4.23281,-15.23809 4.11186,0 4.2328,-0.33862 4.2328,-11.85185 0,-10.63074 0.34091,-11.85185 3.30889,-11.85185 2.90685,0 3.36971,-1.3886 3.80952,-11.42857 0.45489,-10.38426 0.84874,-11.47801 4.31016,-11.96961 3.29597,-0.4681 3.80953,-1.55227 3.80953,-8.04233 0,-6.87263 0.35474,-7.50129 4.2328,-7.50129 4.20145,0 4.2328,-0.11293 4.2328,-15.2381 0,-14.10934 0.25084,-15.23809 3.38625,-15.23809 2.71736,0 3.38624,-1.12875 3.38624,-5.71429 0,-10.51188 1.87806,-16.29629 5.29101,-16.29629 2.39859,0 3.1746,-1.24162 3.1746,-5.07937 0,-3.95061 0.75249,-5.07936 3.38624,-5.07936 2.88457,0 3.38625,-1.12875 3.38625,-7.61905 0,-6.99823 0.34488,-7.61905 4.2328,-7.61905 3.88792,0 4.2328,-0.62081 4.2328,-7.61904 0,-6.37356 0.52922,-7.61905 3.23742,-7.61905 2.45755,0 3.51306,-1.63146 4.38163,-6.77249 0.83261,-4.92815 1.96272,-6.77248 4.14983,-6.77248 2.49127,0 3.16259,-1.95571 3.92301,-11.42858 0.50457,-6.28571 0.49693,-18.47619 -0.0169,-27.08994 -0.79519,-13.32898 -1.3686,-15.66138 -3.8503,-15.66138 -3.04545,0 -4.99575,-7.05222 -5.03349,-18.20105 -0.0152,-4.36768 -0.71708,-5.50265 -3.40489,-5.50265 -2.25749,0 -3.38624,-1.12875 -3.38624,-3.38624 0,-2.48325 -1.12876,-3.38625 -4.23281,-3.38625 -3.38624,0 -4.2328,-0.84656 -4.2328,-4.2328 0,-3.10405 -0.90299,-4.2328 -3.38624,-4.2328 -2.48325,0 -3.38625,-1.12876 -3.38625,-4.23281 0,-3.10405 -0.90299,-4.2328 -3.38624,-4.2328 -2.93474,0 -3.38624,1.12875 -3.38624,8.46561 0,7.90124 -0.2822,8.4656 -4.23281,8.4656 -3.10405,0 -4.2328,0.903 -4.2328,3.38625 0,2.88457 -1.12876,3.38624 -7.61905,3.38624 -6.49029,0 -7.61905,-0.50167 -7.61905,-3.38624 0,-2.85144 -1.13645,-3.3899 -7.19576,-3.40936 -10.45611,-0.0336 -14.81485,-1.57932 -14.81485,-5.25372 0,-2.41434 -1.23359,-3.18877 -5.07937,-3.18877 -3.95061,0 -5.07936,-0.7525 -5.07936,-3.38625 0,-2.25749 -1.12876,-3.38624 -3.38625,-3.38624 -2.48325,0 -3.38624,-1.12875 -3.38624,-4.23281 0,-3.38624 -0.84656,-4.2328 -4.2328,-4.2328 -3.38625,0 -4.23281,-0.84656 -4.23281,-4.2328 0,-3.10405 -0.90299,-4.23281 -3.38624,-4.23281 -2.25749,0 -3.38624,-1.12875 -3.38624,-3.38624 0,-2.48325 -1.12876,-3.38624 -4.23281,-3.38624 -3.88791,0 -4.2328,-0.62082 -4.2328,-7.61905 0,-6.99823 -0.34489,-7.61905 -4.23281,-7.61905 -3.38624,0 -4.2328,-0.84656 -4.2328,-4.2328 0,-3.10405 -0.90299,-4.23281 -3.38624,-4.23281 -2.48325,0 -3.38625,-1.12875 -3.38625,-4.2328 0,-3.10405 -0.90299,-4.23281 -3.38624,-4.23281 -2.25749,0 -3.38624,-1.12875 -3.38624,-3.38624 0,-2.93474 -1.12875,-3.38624 -8.46561,-3.38624 -7.33686,0 -8.46561,-0.45151 -8.46561,-3.38624 0,-2.25749 -1.12875,-3.38625 -3.38624,-3.38625 -2.48325,0 -3.38625,-1.12875 -3.38625,-4.2328 0,-3.38625 -0.84656,-4.23281 -4.2328,-4.23281 -3.38624,0 -4.2328,-0.84656 -4.2328,-4.2328 0,-3.38624 -0.84657,-4.2328 -4.23281,-4.2328 -3.88791,0 -4.2328,-0.62082 -4.2328,-7.61905 0,-6.4903 -0.50167,-7.61905 -3.38625,-7.61905 -3.13541,0 -3.38624,-1.12875 -3.38624,-15.23809 0,-15.12522 -0.0314,-15.2381 -4.2328,-15.2381 -3.38625,0 -4.23281,-0.84656 -4.23281,-4.2328 0,-4.08087 -0.39506,-4.23281 -11.00529,-4.23281 -9.8064,0 -11.00529,-0.36197 -11.00529,-3.3227 0,-3.02698 -1.39395,-3.36604 -15.661383,-3.80952 -14.78119,-0.45946 -15.69178,-0.70092 -16.20241,-4.29635 -0.49702,-3.49958 -1.42685,-3.80952 -11.42857,-3.80952 -9.75879,0 -10.88753,-0.35107 -10.88753,-3.38625 0,-2.48325 -1.12875,-3.38624 -4.23281,-3.38624 -3.38624,0 -4.2328,-0.84656 -4.2328,-4.2328 0,-3.00529 -0.91777,-4.23281 -3.16471,-4.23281 -3.65825,0 -5.25228,-6.76988 -5.28227,-22.43386 -0.0136,-7.12261 -0.64344,-9.73545 -2.34667,-9.73545 -3.46143,0 -4.44697,-7.8784 -4.42133,-35.34391 0.0248,-26.56947 0.79559,-32.38095 4.2947,-32.38095 1.22636,0 2.47083,-2.09524 2.76549,-4.65609 0.37707,-3.27712 1.62494,-4.81121 4.21342,-5.17985 2.82328,-0.40208 3.93955,-2.07379 4.80491,-7.19577 0.85285,-5.04801 1.91523,-6.672 4.36465,-6.672 2.3245,0 3.23742,-1.1936 3.23742,-4.2328 0,-3.01914 0.91581,-4.2328 3.194,-4.2328 2.48746,0 3.44673,-1.68539 4.33654,-7.61905 0.90233,-6.01715 1.83269,-7.61905 4.42505,-7.61905 2.37259,0 3.2825,-1.17333 3.2825,-4.2328 0,-3.10405 0.903,-4.23281 3.38624,-4.23281 2.48325,0 3.38625,-1.12875 3.38625,-4.2328 0,-3.38625 0.84656,-4.23281 4.2328,-4.23281 3.10406,0 4.23281,-0.90299 4.23281,-3.38624 0,-2.18956 1.12874,-3.38624 3.194,-3.38624 2.48746,0 3.44673,-1.68539 4.33654,-7.61905 0.90233,-6.01715 1.83269,-7.61905 4.42505,-7.61905 2.37259,0 3.2825,-1.17334 3.2825,-4.2328 0,-3.32543 0.86099,-4.23281 4.01641,-4.23281 3.376573,0 4.188933,-1.0789 5.099373,-6.77248 0.70075,-4.3822 1.97226,-6.77249 3.60264,-6.77249 1.67089,0 2.51968,-1.71105 2.51968,-5.07936 0,-4.289241 0.65843,-5.079371 4.2328,-5.079371 3.10406,0 4.2328,-0.903 4.2328,-3.38624 0,-2.2575 1.12875,-3.38625 3.38625,-3.38625 2.88458,0 3.38624,-1.12874 3.38624,-7.61904 0,-6.99824 0.3449,-7.61905 4.23281,-7.61905 3.38624,0 4.2328,-0.84656 4.2328,-4.23281 0,-3.10405 0.903,-4.2328 3.38624,-4.2328 2.16813,0 3.38625,-1.12875 3.38625,-3.1378 0,-2.68616 1.86453,-3.29541 12.95386,-4.23281 7.12463,-0.60225 17.7913,-1.095 23.70371,-1.095 9.62109,0 10.74983,-0.35556 10.74983,-3.38624 0,-2.48325 1.12875,-3.38625 4.23281,-3.38625 3.05947,0 4.2328,-0.90991 4.2328,-3.2825 0,-2.59235 1.6019,-3.52272 7.61905,-4.42504 5.93366,-0.88981 7.61905,-1.84908 7.61905,-4.33655 0,-3.08032 2.58705,-3.194 72.68647,-3.194 h 72.68648 l 0.54103,-3.80952 c 0.52733,-3.71292 1.13143,-3.82147 23.82144,-4.28059 21.8814,-0.44275 23.2804,-0.67169 23.2804,-3.80952 0,-3.27362 1.4963,-3.33846 77.0371,-3.33846 75.9083,0 77.037,0.0496 77.037,3.38624 0,3.34401 1.135,3.38647 91.0053,3.40488 50.0529,0.0103 93.8624,0.49089 97.3545,1.06809 4.698,0.77653 6.3492,1.87249 6.3492,4.21417 0,3.04691 3.0251,3.16471 81.2698,3.16471 79.1651,0 81.2699,0.0847 81.2699,3.26848 0,2.10049 1.3613,3.46183 3.8095,3.80953 2.4482,0.3477 4.0029,1.90238 4.3506,4.35056 0.2975,2.09524 1.7022,3.80952 3.1214,3.80952 1.4193,0 2.9789,1.52381 3.466,3.38625 0.8585,3.28281 2.3146,3.38661 47.6722,3.39828 57.02955,0.0147 69.64365,0.94988 69.64365,5.16334 0,2.1719 1.8573,3.30637 6.7725,4.13679 5.2699,0.89034 6.7725,1.89766 6.7725,4.54014 0,1.97603 1.4209,3.7675 3.3983,4.28461 2.3963,0.62664 3.7082,2.8265 4.4492,7.46054 0.8782,5.49148 1.7112,6.57185 5.0673,6.57185 2.8394,0 4.0164,0.95781 4.0164,3.26849 0,2.10048 1.3614,3.46183 3.8096,3.80952 2.4481,0.3477 4.0028,1.90238 4.3505,4.350571 0.3477,2.44818 1.7091,3.80952 3.8095,3.80952 2.3577,0 3.2685,1.17958 3.2685,4.2328 0,3.38625 0.8466,4.23281 4.2328,4.23281 3.1041,0 4.2328,0.903 4.2328,3.38624 0,3.31886 1.1288,3.38624 56.7196,3.38624 54.4529,0 56.7196,-0.12764 56.7196,-3.194 0,-2.48746 1.6854,-3.44673 7.619,-4.33654 6.0172,-0.90233 7.6191,-1.83269 7.6191,-4.42505 0,-3.18878 1.7887,-3.2825 62.6455,-3.2825 h 62.6455 v 4.2328 c 0,3.38625 0.8465,4.23281 4.2328,4.23281 3.8879,0 4.2328,0.62081 4.2328,7.61905 0,6.49029 0.5017,7.61904 3.3862,7.61904 2.8846,0 3.3863,1.12875 3.3863,7.61905 0,6.99823 0.3449,7.61905 4.2328,7.61905 4.1118,0 4.2328,0.33862 4.2328,11.85185 0,10.7231 0.3225,11.85185 3.3862,11.85185 2.8846,0 3.3863,1.12875 3.3863,7.61905 v 7.61905 h 7.619 c 6.4903,0 7.6191,0.50167 7.6191,3.38624 0,3.33435 1.1287,3.38624 73.6508,3.38624 72.522,0 73.6508,-0.052 73.6508,-3.38624 0,-3.34674 1.121,-3.38597 96.0846,-3.36313 52.8466,0.0135 97.7989,0.48254 99.8942,1.04404 2.0952,0.56149 3.8095,2.07491 3.8095,3.36312 0,1.29336 1.706,2.35256 3.8095,2.36532 7.1616,0.0435 11.4286,2.00503 11.4286,5.25373 0,2.25124 1.214,3.18877 4.129,3.18877 3.5957,0 4.2767,0.98419 5.2717,7.61905 0.8742,5.82972 1.8682,7.61904 4.2328,7.61904 2.3645,0 3.3585,1.78933 4.2328,7.61905 0.8898,5.93367 1.8491,7.61905 4.3365,7.61905 2.8933,0 3.194,1.43446 3.194,15.23809 0,13.75379 0.3083,15.2381 3.1648,15.2381 4.3579,0 5.2595,6.82807 5.2822,40 0.022,32.00655 -0.7961,37.88359 -5.2724,37.88359 -2.8813,0 -3.1746,1.48619 -3.1746,16.08466 0,14.9559 -0.2377,16.08466 -3.3862,16.08466 -2.7173,0 -3.3863,1.12875 -3.3863,5.71428 0,10.51188 -1.878,16.2963 -5.291,16.2963 -2.2574,0 -3.1746,1.2228 -3.1746,4.2328 0,3.38624 -0.8465,4.23281 -4.2328,4.23281 -3.3862,0 -4.2328,0.84656 -4.2328,4.2328 0,3.10405 -0.9029,4.2328 -3.3862,4.2328 -2.2575,0 -3.3863,1.12876 -3.3863,3.38625 0,2.51584 -1.1288,3.38624 -4.3912,3.38624 -2.8965,0 -4.6788,1.09945 -5.236,3.22971 -0.4644,1.77634 -2.4884,3.67069 -4.4976,4.20968 -2.0091,0.53899 -40.0339,0.99039 -84.4995,1.00311 -79.7101,0.0229 -80.8466,0.0708 -80.8466,3.40935 0,2.25749 -1.1287,3.38624 -3.3862,3.38624 -2.4833,0 -3.3862,1.12876 -3.3862,4.23281 0,3.10405 -0.903,4.2328 -3.3863,4.2328 -2.6878,0 -3.3901,1.13497 -3.4049,5.50265 -0.039,11.56085 -1.9662,18.20106 -5.2822,18.20106 -2.622,0 -3.1647,1.30653 -3.1647,7.61904 0,6.41004 -0.5209,7.61905 -3.2825,7.61905 -2.5924,0 -3.5228,1.6019 -4.4251,7.61905 -0.8898,5.93366 -1.8491,7.61905 -4.3365,7.61905 -2.2782,0 -3.194,1.21366 -3.194,4.2328 0,3.38624 -0.8466,4.2328 -4.2328,4.2328 -3.1041,0 -4.2328,0.903 -4.2328,3.38625 0,2.21682 -1.1288,3.38624 -3.2685,3.38624 -2.1005,0 -3.4619,1.36134 -3.8096,3.80952 -0.3477,2.44819 -1.9023,4.00287 -4.3505,4.35056 -2.4482,0.3477 -3.8095,1.70904 -3.8095,3.80953 0,2.79343 -1.2304,3.26849 -8.4656,3.26849 -7.1622,0 -8.4657,0.49098 -8.4657,3.18877 0,3.6744 -4.3587,5.22011 -14.8148,5.25372 -6.5405,0.021 -7.1957,0.40852 -7.1957,4.25592 0,4.08086 -0.3951,4.2328 -11.0053,4.2328 -9.8766,0 -11.0053,0.34731 -11.0053,3.38624 0,3.08525 -1.1288,3.38625 -12.6984,3.38625 -11.5697,0 -12.6984,-0.301 -12.6984,-3.38625 0,-2.82187 -1.1288,-3.38624 -6.7725,-3.38624 -5.6438,0 -6.7725,0.56437 -6.7725,3.38624 0,2.48326 -1.1288,3.38625 -4.2328,3.38625 -3.3863,0 -4.2328,0.84656 -4.2328,4.2328 0,4.19734 -0.126,4.23281 -15.0407,4.23281 -13.6166,0 -15.1244,0.32057 -15.9261,3.38624 -0.8213,3.1406 -2.3094,3.38624 -20.5149,3.38624 -18.5007,0 -19.6294,-0.19472 -19.6294,-3.38624 0,-2.80919 -1.1288,-3.38624 -6.6237,-3.38624 -6.3766,0 -6.6652,0.24558 -7.7361,6.58424 -1.2737,7.53944 -4.0305,8.65385 -21.4074,8.65385 -7.3112,0 -9.9471,0.61691 -9.9471,2.32804 0,3.23534 -7.6578,4.44445 -28.1482,4.44445 -16.4373,0 -17.5661,-0.21759 -17.5661,-3.38625 0,-2.88457 -1.1288,-3.38624 -7.6191,-3.38624 -6.4902,0 -7.619,0.50167 -7.619,3.38624 0,2.25749 -1.1288,3.38625 -3.3862,3.38625 -2.4833,0 -3.3863,1.12875 -3.3863,4.2328 v 4.23281 h -20.3174 c -18.936,0 -20.3175,0.22196 -20.3175,3.2644 0,2.68594 -1.6454,3.47 -9.2848,4.42447 -11.039,1.37925 -14.4189,0.38312 -14.4189,-4.2495 0,-3.10432 -1.0721,-3.43937 -11.0053,-3.43937 -10.6102,0 -11.0053,0.15187 -11.0053,4.2328 0,3.10405 -0.903,4.2328 -3.3862,4.2328 -2.2575,0 -3.3863,1.12876 -3.3863,3.38625 0,3.29595 -1.1287,3.38624 -42.328,3.38624 h -42.3281 v 4.2328 c 0,3.38625 -0.8465,4.23281 -4.2328,4.23281 -3.104,0 -4.2328,0.90299 -4.2328,3.38624 0,3.24516 -1.1287,3.38625 -27.0899,3.38625 -25.96115,0 -27.08985,-0.14104 -27.08985,-3.38625 0,-2.80365 -1.1288,-3.38624 -6.5609,-3.38624 -11.3351,0 -17.1428,-1.79251 -17.1428,-5.29101 0,-2.63375 -1.2981,-3.1746 -7.6191,-3.1746 -6.3374,0 -7.619,-0.53726 -7.619,-3.19401 0,-2.48746 -1.6854,-3.44673 -7.6191,-4.33654 -6.0171,-0.90233 -7.619,-1.83268 -7.619,-4.42504 0,-2.37259 -1.1734,-3.2825 -4.2328,-3.2825 -3.3863,0 -4.2328,-0.84656 -4.2328,-4.23281 0,-3.38624 -0.8466,-4.2328 -4.2328,-4.2328 -3.1041,0 -4.2328,-0.90299 -4.2328,-3.38625 0,-2.25749 -1.1288,-3.38624 -3.3863,-3.38624 -2.4832,0 -3.3862,-1.12875 -3.3862,-4.2328 0,-3.38625 -0.8466,-4.23281 -4.2328,-4.23281 -3.1041,0 -4.2328,-0.90299 -4.2328,-3.38624 0,-2.25749 -1.1288,-3.38624 -3.3863,-3.38624 -2.5158,0 -3.3862,-1.12876 -3.3862,-4.39132 0,-2.89644 -1.0995,-4.67882 -3.2297,-5.23589 -3.737,-0.97724 -5.1803,-5.22635 -5.2128,-15.34634 l -0.023,-7.19576 h -11.0053 c -9.8305,0 -11.0053,-0.35698 -11.0053,-3.34431 0,-3.17403 -1.4008,-3.36799 -27.5132,-3.80952 -27.0823,-0.45794 -27.5217,-0.52489 -28.0543,-4.27475 l -0.541,-3.80952 h -61.6812 c -60.5524,0 -61.6812,-0.062 -61.6812,-3.38624 0,-2.25749 -1.1288,-3.38625 -3.3862,-3.38625 -2.2575,0 -3.3863,1.12876 -3.3863,3.38625 0,2.21682 -1.1287,3.38624 -3.2685,3.38624 -2.1005,0 -3.4618,1.36134 -3.8095,3.80952 -0.3477,2.44819 -1.9024,4.00287 -4.3506,4.35056 -2.4481,0.3477 -3.8095,1.70904 -3.8095,3.80953 0,2.13973 -1.1694,3.26849 -3.3862,3.26849 -2.8846,0 -3.3863,1.12875 -3.3863,7.61904 0,6.99823 -0.3449,7.61905 -4.2328,7.61905 -4.1118,0 -4.2328,0.33862 -4.2328,11.85185 0,10.45973 0.3729,11.85185 3.1746,11.85185 3.413,0 5.291,5.78442 5.291,16.2963 0,4.58553 0.6689,5.71428 3.3863,5.71428 3.1486,0 3.3862,1.12876 3.3862,16.08466 0,16.02822 -0.015,16.08466 -4.2328,16.08466 -3.3862,0 -4.2328,0.84656 -4.2328,4.2328 0,4.11186 -0.3386,4.2328 -11.8518,4.2328 -8.9622,0 -11.8519,0.57108 -11.8519,2.34222 0,1.28821 -1.5238,2.74069 -3.3862,3.22773 -2.7663,0.7234 -3.3863,2.30944 -3.3863,8.66308 0,6.6488 -0.4914,7.77756 -3.3862,7.77756 -2.9348,0 -3.3863,1.12875 -3.3863,8.4656 0,7.90124 -0.2822,8.46561 -4.2328,8.46561 -3.104,0 -4.2328,0.90299 -4.2328,3.38624 0,2.18044 -1.1287,3.38625 -3.1698,3.38625 -2.3889,0 -3.4367,1.66848 -4.2528,6.77248 -0.8423,5.26719 -1.8312,6.77249 -4.4492,6.77249 -2.6115,0 -3.3663,1.13881 -3.3663,5.07937 0,3.84582 -0.7744,5.07936 -3.1888,5.07936 -4.7169,0 -5.1423,4.94808 -4.039,46.98413 l 0.9888,37.67195 h -4.4996 c -3.6707,0 -4.4995,0.77965 -4.4995,4.23281 0,3.10405 -0.903,4.2328 -3.3862,4.2328 -2.2575,0 -3.3862,1.12875 -3.3862,3.38624 0,2.48326 -1.1288,3.38625 -4.2329,3.38625 -3.3862,0 -4.2328,0.84656 -4.2328,4.2328 0,3.34512 -0.8564,4.23281 -4.0839,4.23281 -3.4452,0 -4.263,1.0593 -5.2282,6.77248 -0.7035,4.16369 -2.0652,6.77249 -3.5351,6.77249 -2.0021,0 -2.3909,7.70777 -2.3909,47.40741 v 47.40741 h -4.2328 c -3.104,0 -4.2328,0.903 -4.2328,3.3862 0,2.2575 -1.1287,3.3863 -3.3862,3.3863 -2.4833,0 -3.3862,1.1287 -3.3862,4.2328 0,3.3862 -0.8466,4.2328 -4.2329,4.2328 -3.3862,0 -4.2328,0.8465 -4.2328,4.2328 0,3.0392 -0.9129,4.2328 -3.2374,4.2328 -2.4575,0 -3.513,1.6314 -4.3816,6.7725 -0.8686,5.141 -1.9241,6.7725 -4.3816,6.7725 -2.948,0 -3.2375,1.3622 -3.2375,15.2381 0,13.7135 0.3144,15.2381 3.1415,15.2381 2.6429,0 3.3126,1.8135 4.2207,11.4285 0.5937,6.2858 1.0848,16.95237 1.0914,23.70377 0.012,11.9679 -0.094,12.2751 -4.2207,12.2751 -3.888,0 -4.2329,0.6208 -4.2329,7.619 0,6.9983 -0.3448,7.6191 -4.2328,7.6191 -3.3862,0 -4.2328,0.8465 -4.2328,4.2328 0,3.0532 -0.9108,4.2328 -3.2684,4.2328 -2.1005,0 -3.4619,1.3613 -3.8096,3.8095 -0.4497,3.1669 -1.7549,3.8974 -7.7368,4.3302 -5.8173,0.4209 -7.1957,1.1506 -7.1957,3.8095 0,2.8179 -1.2123,3.2889 -8.4656,3.2889 -7.1488,0 -8.4657,0.4938 -8.4657,3.1746 0,2.201 -1.6225,3.4991 -5.291,4.2328 -5.8109,1.1622 -91.44534,1.0422 -97.56609,-0.1366 z"
       id="path36" />
  </g>
</svg>
