<?xml version="1.0" encoding="UTF-8" standalone="no"?>
<svg
   xmlns:dc="http://purl.org/dc/elements/1.1/"
   xmlns:cc="http://creativecommons.org/ns#"
   xmlns:rdf="http://www.w3.org/1999/02/22-rdf-syntax-ns#"
   xmlns:svg="http://www.w3.org/2000/svg"
   xmlns="http://www.w3.org/2000/svg"
   xmlns:sodipodi="http://sodipodi.sourceforge.net/DTD/sodipodi-0.dtd"
   xmlns:inkscape="http://www.inkscape.org/namespaces/inkscape"
   version="1.1"
   id="svg954"
   width="849.94708"
   height="711.11108"
   viewBox="0 0 849.94708 711.11108"
   sodipodi:docname="HeliosPhaser.svg"
   inkscape:version="1.0.1 (3bc2e813f5, 2020-09-07)">
  <metadata
     id="metadata960">
    <rdf:RDF>
      <cc:Work
         rdf:about="">
        <dc:format>image/svg+xml</dc:format>
        <dc:type
           rdf:resource="http://purl.org/dc/dcmitype/StillImage" />
        <dc:title></dc:title>
      </cc:Work>
    </rdf:RDF>
  </metadata>
  <defs
     id="defs958" />
  <sodipodi:namedview
     pagecolor="#ffffff"
     bordercolor="#666666"
     borderopacity="1"
     objecttolerance="10"
     gridtolerance="10"
     guidetolerance="10"
     inkscape:pageopacity="0"
     inkscape:pageshadow="2"
     inkscape:window-width="2880"
     inkscape:window-height="1526"
     id="namedview956"
     showgrid="false"
     inkscape:zoom="1.4175001"
     inkscape:cx="424.97354"
     inkscape:cy="355.55554"
     inkscape:window-x="-11"
     inkscape:window-y="-11"
     inkscape:window-maximized="1"
     inkscape:current-layer="g962" />
  <g
     inkscape:groupmode="layer"
     inkscape:label="Image"
     id="g962">
    <path
       style="fill:#000000;stroke-width:1.69312"
       d="m 429.62962,511.65042 c -0.93122,-0.4151 -11.21693,-1.49139 -22.85714,-2.39174 -14.44301,-1.11716 -28.69156,-3.58932 -44.86773,-7.78467 -13.03703,-3.38123 -44.18099,-11.04867 -69.20878,-17.0388 -25.0278,-5.99011 -47.88494,-12.11878 -50.79365,-13.6193 -8.94913,-4.61655 -40.07351,-15.34762 -55.23566,-19.04416 -7.91534,-1.92977 -34.96296,-8.51308 -60.10582,-14.62957 -56.491608,-13.74271 -60.63017,-15.088 -65.98176,-21.44801 -5.080556,-6.03789 -5.52153,-14.99291 -1.773959,-36.02433 2.809001,-15.76414 5.714066,-19.44971 19.774655,-25.08747 8.009967,-3.2117 15.168225,-9.2461 44.705084,-37.68643 48.11856,-46.33217 75.49689,-74.53813 79.13475,-81.52692 6.37201,-12.24144 5.29678,-30.45254 -2.37376,-40.20404 -1.9473,-2.47559 -6.70662,-6.06728 -10.57627,-7.98152 -3.86965,-1.91424 -13.13096,-9.70251 -20.5807,-17.30726 l -13.54497,-13.82682 0.23097,-11.28139 c 0.19891,-9.7161 -0.20937,-11.39654 -2.94258,-12.11129 -6.39935,-1.67347 -8.47819,-14.62319 -3.80069,-23.67553 4.42188,-8.5576 6.34452,-9.232563 23.71162,-8.32415 10.17302,0.53212 15.81655,0.21048 15.81655,-0.901433 0,-2.17003 18.71156,-4.6374 20.12446,-2.65368 2.47271,3.471693 10.64889,7.307263 15.57671,7.307263 2.93926,0 14.96606,2.23436 26.72623,4.96525 41.07994,9.53938 54.36258,11.04216 78.1017,8.83636 24.99962,-2.32293 46.84231,-2.54074 48.11605,-0.4798 0.49965,0.80847 4.92197,2.00236 9.82737,2.65308 4.90538,0.65072 10.23075,2.37037 11.83417,3.82144 1.61116,1.45808 4.45503,2.23566 6.35722,1.73823 1.89304,-0.49505 3.44191,-0.36753 3.44191,0.28337 0,1.46313 14.07319,5.52917 21.76814,6.28928 3.12593,0.30877 6.66477,1.3758 7.86411,2.37116 1.19934,0.99537 2.83226,1.60438 3.62868,1.35336 2.47515,-0.7801 20.91896,4.18748 20.91896,5.63422 0,0.75327 1.14286,0.93102 2.53969,0.395 1.39799,-0.53646 2.53968,-0.0506 2.53968,1.08085 0,1.13047 1.09067,1.63687 2.42374,1.12533 1.33306,-0.51154 5.34655,0.48208 8.91887,2.20804 6.37193,3.07858 18.62215,6.19222 21.37583,5.43309 0.76763,-0.21161 0.83312,0.52551 0.14561,1.63804 -0.88175,1.42671 -0.31037,1.66218 1.93894,0.79903 1.75401,-0.67308 2.66073,-0.69539 2.01492,-0.0496 -0.98992,0.98992 6.31199,6.63881 17.23818,13.33576 1.46496,0.89791 5.71119,3.61942 9.43606,6.0478 3.72486,2.42837 9.34058,5.44327 12.47935,6.69977 3.13878,1.25649 7.13878,3.8215 8.88889,5.70003 1.75011,1.87852 3.18202,2.83558 3.18202,2.12679 0,-0.70879 1.99431,0.28002 4.43181,2.19736 2.43749,1.91733 5.10416,3.07052 5.92593,2.56264 0.82167,-0.50788 1.49403,-0.11655 1.49403,0.86963 0,0.98617 0.72266,1.79304 1.60589,1.79304 0.88323,0 3.66115,1.90476 6.17315,4.23281 2.6144,2.42293 6.59742,4.2328 9.31527,4.2328 2.61141,0 5.38481,1.1379 6.16312,2.52868 0.77833,1.39077 3.48285,2.6998 6.01005,2.90896 2.52723,0.20916 4.59495,1.02098 4.59495,1.80405 0,0.78307 0.76191,0.95287 1.69312,0.37736 0.93122,-0.57553 1.69312,-0.19457 1.69312,0.84656 0,1.04113 0.70927,1.45462 1.57613,0.91886 0.86688,-0.53575 2.05471,-0.19976 2.63961,0.74664 0.58491,0.94641 2.54233,1.72074 4.3498,1.72074 1.80748,0 3.28632,0.80687 3.28632,1.79305 0,0.98617 0.7619,1.32216 1.69312,0.74663 0.93121,-0.57552 1.69312,-0.26344 1.69312,0.6935 0,0.95695 1.06579,1.33093 2.36842,0.83106 1.30264,-0.49987 2.94417,0.0227 3.64785,1.1613 0.87204,1.411 0.57373,1.63401 -0.93691,0.70039 -1.47755,-0.91318 -1.80793,-0.70899 -0.99117,0.61257 0.67383,1.09029 1.87299,1.58196 2.66479,1.09261 0.79179,-0.48936 2.64391,0.31453 4.11581,1.78643 1.4719,1.4719 2.67618,2.18893 2.67618,1.5934 0,-0.59554 2.28572,0.54478 5.07937,2.53403 4.55524,3.24363 5.07936,4.54734 5.07936,12.63465 0,7.75332 -0.73825,9.80812 -5.26483,14.65385 -10.49137,11.23104 -10.8074,18.08391 -1.08437,23.51416 3.95767,2.21034 11.38624,7.97093 16.50793,12.80132 5.1217,4.83037 12.36795,10.32279 16.10279,12.20534 6.55318,3.30316 27.99917,9.83314 49.0824,14.94488 5.5873,1.35467 15.27937,4.40442 21.53794,6.77723 6.25858,2.37281 11.59191,4.25019 11.85186,4.17195 0.25994,-0.0782 9.21767,2.91127 19.90608,6.64332 10.68839,3.73206 20.57165,6.78557 21.9628,6.78557 2.49514,0 23.06365,5.81774 29.78768,8.42533 9.17284,3.55727 -0.83132,54.83249 -17.18554,88.08261 -4.35124,8.84656 -9.02222,17.36997 -10.37997,18.94093 -1.35776,1.57095 -2.04453,3.54252 -1.52616,4.38126 0.51836,0.83875 -2.20011,1.64813 -6.04108,1.79864 -3.84096,0.15051 -7.2942,0.58425 -7.67385,0.96391 -0.37965,0.37964 -9.58652,-2.31993 -20.45973,-5.99906 -10.8732,-3.67913 -31.43172,-9.68526 -45.68561,-13.34696 -14.2539,-3.66168 -26.70191,-7.14324 -27.66225,-7.73675 -0.96036,-0.59352 -13.60454,-4.82133 -28.09819,-9.39513 -26.29169,-8.29693 -26.41454,-8.31741 -53.60758,-8.9352 -30.46783,-0.69218 -38.2732,1.0836 -44.38359,10.09759 -1.75416,2.58769 -6.1576,7.81847 -9.78544,11.62393 -3.62783,3.80544 -9.64877,10.95165 -13.37987,15.88044 -4.70351,6.21332 -9.48374,10.23868 -15.58808,13.12651 -5.66976,2.68222 -11.90607,7.7313 -17.51667,14.18195 -6.9953,8.04267 -10.46488,10.56756 -17.60421,12.81103 -4.8905,1.53677 -12.90256,4.74233 -17.80455,7.12345 -6.96664,3.38399 -12.14236,4.46237 -23.7037,4.93877 -8.13505,0.3352 -15.55288,0.26983 -16.4841,-0.14527 z m 0.61554,-100.00509 c 3.42548,-2.88236 6.03608,-7.48358 7.92513,-13.96826 2.65198,-9.10359 2.64209,-10.16591 -0.16864,-18.13563 -1.64209,-4.65609 -4.00708,-9.96848 -5.25555,-11.80531 -1.24846,-1.83682 -2.29526,-4.50348 -2.32625,-5.92593 -0.0633,-2.90836 -5.65,-10.19697 -7.83411,-10.22074 -0.78195,-0.008 -5.23125,-1.88785 -9.88734,-4.17628 -10.59924,-5.20946 -69.83842,-24.14401 -133.98631,-42.82592 -16.26674,-4.73738 -27.64392,1.14549 -33.62758,17.38804 -3.77815,10.25568 -6.78995,13.99751 -13.53497,16.81576 -4.78727,2.00026 -6.20941,4.07614 -13.4006,19.56089 -1.07464,2.31403 -4.97874,5.86848 -8.67576,7.89879 -12.03991,6.61194 -16.02997,12.09965 -16.03213,22.04967 -0.003,11.66832 5.25733,18.21909 16.54563,20.60634 21.38183,4.52182 18.89282,5.07393 33.06347,-7.33421 14.59288,-12.77787 29.74072,-19.49142 43.97865,-19.49142 13.39674,0 125.62743,26.52725 132.43278,31.3023 4.60321,3.22988 4.94493,3.1748 10.78358,-1.73809 z M 373.88098,295.40892 c 2.97731,-2.04008 8.35779,-8.1143 11.95662,-13.49828 3.59884,-5.38397 7.05568,-9.81004 7.68188,-9.83573 0.62619,-0.0257 2.02066,-2.71954 3.09881,-5.98635 1.51014,-4.57583 1.48232,-7.01938 -0.12123,-10.64198 -1.76876,-3.99589 -4.39633,-5.40504 -17.49034,-9.37993 -8.47488,-2.57268 -17.50556,-5.35006 -20.06816,-6.17196 -3.90539,-1.25257 -4.97815,-0.89854 -6.63001,2.18801 -3.38999,6.33424 -3.85316,26.98275 -0.8059,35.92603 1.49686,4.393 2.30947,8.65405 1.8058,9.46898 -0.50367,0.81495 -3.58029,1.48172 -6.83696,1.48172 -5.3506,0 -6.23212,-0.7029 -9.14776,-7.29419 -1.77462,-4.0118 -4.89875,-17.34513 -6.94253,-29.62963 -3.44307,-20.69537 -3.9873,-22.33544 -7.41171,-22.33544 -2.26084,0 -4.41659,1.58198 -5.55224,4.07446 -1.08839,2.38872 -3.88911,4.52091 -6.76944,5.15353 -4.36513,0.95875 -5.34129,2.44482 -8.75406,13.32685 -3.58712,11.43792 -3.66935,12.65881 -1.24378,18.46402 2.96243,7.09013 13.26997,13.10459 35.0114,20.42917 27.05507,9.11473 30.56465,9.50598 38.21961,4.26072 z"
       id="path966" />
  </g>
</svg>
