<?xml version="1.0" standalone="no"?>
<!DOCTYPE svg PUBLIC "-//W3C//DTD SVG 20010904//EN"
 "http://www.w3.org/TR/2001/REC-SVG-20010904/DTD/svg10.dtd">
<svg version="1.0" xmlns="http://www.w3.org/2000/svg"
 width="1350.000000pt" height="807.000000pt" viewBox="0 0 1350.000000 807.000000"
 preserveAspectRatio="xMidYMid meet">

<g transform="translate(0.000000,807.000000) scale(0.100000,-0.100000)"
fill="#000000" stroke="none">
<path d="M4810 7933 c-19 -2 -84 -15 -145 -28 -247 -54 -323 -67 -675 -110
-194 -25 -285 -34 -420 -45 -128 -10 -213 -21 -310 -39 -167 -31 -302 -41
-438 -31 -209 15 -280 13 -352 -11 -119 -39 -154 -71 -258 -234 -39 -60 -104
-162 -145 -225 -41 -63 -123 -191 -182 -285 -60 -93 -120 -186 -135 -205 -14
-19 -53 -78 -85 -130 -32 -52 -102 -162 -156 -245 -146 -225 -149 -233 -149
-332 0 -93 13 -133 60 -194 40 -49 135 -96 220 -108 36 -5 79 -16 95 -24 35
-18 226 -50 248 -41 38 14 119 -53 161 -133 18 -36 21 -130 6 -195 -5 -24 -19
-87 -31 -141 -23 -109 -93 -256 -301 -632 -230 -416 -456 -1046 -548 -1528
-50 -262 -53 -339 -17 -426 24 -58 25 -65 12 -92 -8 -15 -15 -37 -15 -48 0
-30 56 -80 128 -113 34 -15 62 -33 62 -38 0 -15 86 -50 120 -50 16 0 32 -4 35
-10 3 -5 17 -10 31 -10 13 0 61 -20 107 -44 84 -45 132 -63 292 -111 50 -15
108 -35 131 -46 23 -11 62 -19 92 -19 29 0 52 -3 52 -7 0 -5 18 -17 40 -27 35
-17 44 -17 85 -6 64 18 111 57 144 122 8 15 22 37 33 47 10 11 18 25 18 31 0
5 5 10 10 10 6 0 10 8 10 18 0 9 7 30 15 46 8 15 15 35 15 42 0 8 5 14 10 14
6 0 10 5 10 12 0 17 42 102 54 110 8 5 12 171 7 293 -2 36 13 144 28 203 13
50 80 169 146 257 72 97 153 230 194 318 144 304 151 321 191 474 10 40 24 81
29 92 11 20 12 19 69 -7 48 -22 70 -26 144 -26 127 0 128 2 128 170 0 73 5
157 10 186 6 29 15 78 21 108 17 88 70 233 96 264 40 48 65 105 58 135 -7 35
4 44 76 65 43 12 104 16 272 16 209 0 217 0 270 25 48 22 131 77 163 109 6 6
24 36 41 66 104 188 121 209 243 293 l75 52 188 -2 c233 -3 363 -16 423 -45
64 -30 151 -112 181 -172 40 -79 140 -208 185 -239 62 -41 109 -50 229 -44 93
5 119 2 195 -18 49 -14 110 -25 136 -25 26 0 58 -5 72 -11 20 -9 42 -7 113 12
115 31 264 32 334 1 26 -11 80 -25 120 -31 64 -10 84 -9 149 8 106 27 227 35
264 16 37 -19 212 -20 283 -1 61 16 142 62 198 111 22 19 45 35 52 35 7 0 13
6 13 13 1 6 17 26 36 42 20 17 55 48 79 70 24 22 58 54 77 70 19 17 79 71 133
122 154 141 205 182 265 211 52 26 65 27 235 32 172 5 183 6 234 33 30 15 59
27 64 27 5 0 5 -19 1 -42 -10 -56 -6 -98 9 -116 7 -9 46 -45 88 -82 56 -50 90
-71 130 -83 67 -20 353 -37 625 -37 191 0 202 1 250 24 27 13 66 40 88 60 21
20 44 36 50 36 23 0 94 87 126 155 58 124 81 200 120 400 14 72 8 377 -8 448
-22 94 -104 268 -147 312 -42 44 -106 85 -131 85 -8 0 -31 8 -52 19 -68 33
-149 40 -507 42 l-350 2 -53 -27 c-31 -16 -82 -57 -120 -97 -61 -64 -93 -82
-107 -60 -3 5 -26 21 -51 35 -39 22 -65 27 -197 36 -84 6 -172 16 -197 21 -66
15 -214 77 -385 162 -82 41 -166 81 -185 90 -19 9 -114 53 -210 98 -96 44
-251 116 -345 159 -93 43 -236 110 -317 149 -82 39 -150 71 -153 71 -3 0 -81
36 -172 80 -265 128 -414 172 -644 190 -126 10 -338 22 -954 55 -308 16 -606
25 -655 18z"/>
</g>
</svg>
