<?xml version="1.0" encoding="UTF-8" standalone="no"?>
<svg
   xmlns:dc="http://purl.org/dc/elements/1.1/"
   xmlns:cc="http://creativecommons.org/ns#"
   xmlns:rdf="http://www.w3.org/1999/02/22-rdf-syntax-ns#"
   xmlns:svg="http://www.w3.org/2000/svg"
   xmlns="http://www.w3.org/2000/svg"
   xmlns:sodipodi="http://sodipodi.sourceforge.net/DTD/sodipodi-0.dtd"
   xmlns:inkscape="http://www.inkscape.org/namespaces/inkscape"
   version="1.1"
   id="svg940"
   width="206.56085"
   height="411.42856"
   viewBox="0 0 206.56085 411.42856"
   sodipodi:docname="Phaser.svg"
   inkscape:version="1.0.1 (3bc2e813f5, 2020-09-07)">
  <metadata
     id="metadata946">
    <rdf:RDF>
      <cc:Work
         rdf:about="">
        <dc:format>image/svg+xml</dc:format>
        <dc:type
           rdf:resource="http://purl.org/dc/dcmitype/StillImage" />
        <dc:title></dc:title>
      </cc:Work>
    </rdf:RDF>
  </metadata>
  <defs
     id="defs944" />
  <sodipodi:namedview
     pagecolor="#ffffff"
     bordercolor="#666666"
     borderopacity="1"
     objecttolerance="10"
     gridtolerance="10"
     guidetolerance="10"
     inkscape:pageopacity="0"
     inkscape:pageshadow="2"
     inkscape:window-width="2880"
     inkscape:window-height="1526"
     id="namedview942"
     showgrid="false"
     inkscape:zoom="2.4500001"
     inkscape:cx="103.28043"
     inkscape:cy="205.71428"
     inkscape:window-x="-11"
     inkscape:window-y="-11"
     inkscape:window-maximized="1"
     inkscape:current-layer="g948" />
  <g
     inkscape:groupmode="layer"
     inkscape:label="Image"
     id="g948">
    <path
       style="fill:#000000;stroke-width:1.69312"
       d="m 52.501884,340.48613 c -6.10576,-2.21486 -8.06677,-4.06809 -11.66253,-11.02152 -2.88833,-5.58542 -3.88162,-24.12827 -1.29248,-24.12827 0.80672,0 1.84107,-7.77335 2.29857,-17.27412 0.51834,-10.76434 1.56073,-17.5171 2.76604,-17.91887 2.5324,-0.84414 2.77102,-81.6324 0.24112,-81.6324 -0.93121,0 -1.69312,-2.66667 -1.69312,-5.92593 0,-3.25925 0.76191,-5.92592 1.69312,-5.92592 0.93122,0 1.69312,-1.90476 1.69312,-4.23281 0,-2.32804 -0.7619,-4.2328 -1.69312,-4.2328 -0.99595,0 -1.69312,-5.92592 -1.69312,-14.39153 0,-13.26278 0.26559,-14.39154 3.38624,-14.39154 3.23056,0 3.38625,-1.12875 3.38625,-24.55026 0,-23.42152 -0.15569,-24.55026 -3.38625,-24.55026 -3.01577,0 -3.38624,-1.12875 -3.38624,-10.317235 0,-8.89332 0.46735,-10.43946 3.38624,-11.20277 1.86244,-0.48703 3.38625,-2.19852 3.38625,-3.80329 0,-1.94863 2.39009,-3.670103 7.19577,-5.182792 3.95767,-1.245761 9.10052,-3.16651 11.42857,-4.268331 2.32804,-1.101819 7.45654,-2.496934 11.39667,-3.100253 l 7.16387,-1.096943 5.34547,10.589329 c 10.264346,20.33355 11.649536,26.659025 11.649536,53.197605 v 24.2852 l 11.42857,-0.0428 c 9.83995,-0.0369 13.27375,-0.961 24.7027,-6.64803 7.30077,-3.63284 14.63484,-7.8366 16.29794,-9.34168 5.11449,-4.62855 13.90427,-5.06355 21.72242,-1.07503 3.84082,1.95944 8.72795,3.58796 10.86029,3.61895 2.13233,0.031 5.59126,1.48644 7.68649,3.23435 3.33732,2.7841 3.80953,4.77211 3.80953,16.03821 v 12.86018 L 186.56197,156.974 c -13.73228,-1.05556 -14.35964,-0.93542 -27.08995,5.18762 -7.16766,3.44749 -13.03212,6.94756 -13.03212,7.7779 0,0.83036 -2.94758,2.30342 -6.55017,3.2735 l -6.55018,1.76379 -0.80402,12.52841 c -0.71886,11.20128 -1.32529,12.99142 -5.72496,16.89952 -6.34605,5.63701 -7.30508,6.3648 -13.38654,10.15881 -2.79365,1.74287 -7.1746,5.11753 -9.73545,7.49924 -4.572206,4.2524 -4.656076,4.6907 -4.656076,24.33109 0,12.20506 0.65992,20.0007 1.693116,20.0007 1.02125,0 1.69312,7.05468 1.69312,17.77777 0,10.7231 0.67187,17.77778 1.69312,17.77778 0.96407,0 1.69312,4.99696 1.69312,11.60462 0,9.97132 -0.58437,12.23516 -4.15195,16.08466 -2.283576,2.46402 -4.950246,4.48003 -5.925926,4.48003 -0.97568,0 -1.77397,0.62079 -1.77397,1.37954 0,0.75874 -2.69251,2.6635 -5.98337,4.2328 -6.8616,3.27206 -27.32728,3.70737 -35.46788,0.75438 z M 120.7894,182.16174 c -0.13953,-7.21693 -0.57109,-11.02645 -0.95902,-8.4656 -0.63182,4.1707 -1.39963,4.65608 -7.36537,4.65608 -5.97528,0 -6.66003,-0.4352 -6.66003,-4.2328 0,-2.32805 -0.7619,-4.23281 -1.69312,-4.23281 -0.97825,0 -1.69312,5.36156 -1.69312,12.69841 v 12.69842 h 9.31217 9.31217 z"
       id="path952" />
  </g>
</svg>
