<?xml version="1.0" encoding="UTF-8" standalone="no"?>
<svg
   xmlns:dc="http://purl.org/dc/elements/1.1/"
   xmlns:cc="http://creativecommons.org/ns#"
   xmlns:rdf="http://www.w3.org/1999/02/22-rdf-syntax-ns#"
   xmlns:svg="http://www.w3.org/2000/svg"
   xmlns="http://www.w3.org/2000/svg"
   xmlns:sodipodi="http://sodipodi.sourceforge.net/DTD/sodipodi-0.dtd"
   xmlns:inkscape="http://www.inkscape.org/namespaces/inkscape"
   version="1.1"
   id="svg982"
   width="204.84335"
   height="112.17612"
   viewBox="0 0 204.84335 112.17612"
   sodipodi:docname="Phaser1.svg"
   inkscape:version="1.0.1 (3bc2e813f5, 2020-09-07)">
  <metadata
     id="metadata988">
    <rdf:RDF>
      <cc:Work
         rdf:about="">
        <dc:format>image/svg+xml</dc:format>
        <dc:type
           rdf:resource="http://purl.org/dc/dcmitype/StillImage" />
        <dc:title></dc:title>
      </cc:Work>
    </rdf:RDF>
  </metadata>
  <defs
     id="defs986" />
  <sodipodi:namedview
     pagecolor="#ffffff"
     bordercolor="#666666"
     borderopacity="1"
     objecttolerance="10"
     gridtolerance="10"
     guidetolerance="10"
     inkscape:pageopacity="0"
     inkscape:pageshadow="2"
     inkscape:window-width="2880"
     inkscape:window-height="1526"
     id="namedview984"
     showgrid="false"
     inkscape:zoom="6.9321263"
     inkscape:cx="102.42168"
     inkscape:cy="56.088058"
     inkscape:window-x="-11"
     inkscape:window-y="-11"
     inkscape:window-maximized="1"
     inkscape:current-layer="g990" />
  <g
     inkscape:groupmode="layer"
     inkscape:label="Image"
     id="g990">
    <path
       style="fill:#000000;stroke-width:0.81287"
       d="m 173.91306,104.66536 c -0.67062,-0.23811 -3.77985,-1.63932 -6.9094,-3.11381 -3.12955,-1.47447 -7.73727,-3.583468 -10.23937,-4.686646 -5.88918,-2.596544 -8.05022,-4.934425 -8.05022,-8.70894 0,-2.321078 -0.50989,-3.322315 -2.40569,-4.723947 -1.32314,-0.978233 -2.79239,-1.77861 -3.26502,-1.77861 -0.47264,0 -4.87085,-2.011854 -9.77382,-4.470787 -4.90298,-2.458933 -9.40092,-4.470788 -9.99545,-4.470788 -0.59452,0 -3.46697,-1.439071 -6.3832,-3.197937 -2.91624,-1.758864 -7.64825,-3.988247 -10.51559,-4.954182 -2.86732,-0.965934 -5.39641,-2.006053 -5.62018,-2.311373 -0.22375,-0.305322 -2.052901,-1.220174 -4.064751,-2.033005 -2.01186,-0.812833 -5.12122,-2.125333 -6.90968,-2.91667 -5.3614,-2.372235 -8.34848,-2.772493 -9.80688,-1.314089 -0.70549,0.705496 -1.93475,1.282718 -2.7317,1.282718 -2.30369,0 -5.5944,3.623733 -6.19423,6.821097 -0.30266,1.613341 -0.73564,2.933348 -0.96217,2.933348 -0.22654,0 -1.66172,-1.097375 -3.1893,-2.438611 -3.31896,-2.914083 -4.32766,-2.985125 -9.1704,-0.645868 -9.49132,4.584732 -12.72444,8.444016 -11.86656,14.164785 1.02604,6.842081 -1.94981,8.210508 -12.10364,5.565769 -6.78034,-1.76605 -9.11585,-3.402578 -12.72565,-8.917025 -3.22704,-4.92973 -3.90682,-8.118961 -2.35043,-11.027108 0.46079,-0.860992 5.50373,-4.303417 11.20652,-7.649835 5.7028,-3.346417 11.16316,-6.824526 12.13414,-7.729131 0.97098,-0.904605 2.15188,-1.644736 2.62423,-1.644736 0.47234,0 1.5839,-1.188823 2.47013,-2.641829 1.99627,-3.272971 1.47257,-9.80838 -1.00429,-12.532968 -2.35105,-2.586182 -1.35352,-6.484825 1.83864,-7.18594 2.43827,-0.535535 5.78511,-3.420043 8.33891,-7.18697 0.94383,-1.39217 2.19904,-2.15424 3.54829,-2.15424 1.34778,0 3.0115,-1.008431 4.69377,-2.845047 3.10922,-3.3944756 5.28912,-3.5838286 9.80636,-0.851809 1.78832,1.081571 5.62913,3.220114 8.53514,4.752316 20.744821,10.93776 24.517641,13.575966 27.842841,19.469518 0.94592,1.676545 2.07745,3.048264 2.5145,3.048264 0.43705,0 4.72868,2.362321 9.53696,5.249602 12.92013,7.758299 19.52832,10.928094 24.82254,11.906785 3.12044,0.576843 9.03927,3.104661 17.35874,7.41358 13.27303,6.87453 15.36532,8.214413 20.95575,13.419885 3.9944,3.719351 4.45452,6.52651 1.87416,11.434199 -0.8693,1.653354 -2.58085,5.500149 -3.80344,8.548438 -2.89857,7.226997 -5.85606,9.614487 -10.06056,8.121597 z"
       id="path994" />
  </g>
</svg>
