<?xml version="1.0" encoding="UTF-8" standalone="no"?>
<svg
   xmlns:dc="http://purl.org/dc/elements/1.1/"
   xmlns:cc="http://creativecommons.org/ns#"
   xmlns:rdf="http://www.w3.org/1999/02/22-rdf-syntax-ns#"
   xmlns:svg="http://www.w3.org/2000/svg"
   xmlns="http://www.w3.org/2000/svg"
   xmlns:sodipodi="http://sodipodi.sourceforge.net/DTD/sodipodi-0.dtd"
   xmlns:inkscape="http://www.inkscape.org/namespaces/inkscape"
   version="1.1"
   id="svg10"
   width="812.69843"
   height="389.418"
   viewBox="0 0 812.69843 389.418"
   sodipodi:docname="PhaserOutline.svg"
   inkscape:version="1.0.1 (3bc2e813f5, 2020-09-07)">
  <metadata
     id="metadata16">
    <rdf:RDF>
      <cc:Work
         rdf:about="">
        <dc:format>image/svg+xml</dc:format>
        <dc:type
           rdf:resource="http://purl.org/dc/dcmitype/StillImage" />
        <dc:title></dc:title>
      </cc:Work>
    </rdf:RDF>
  </metadata>
  <defs
     id="defs14" />
  <sodipodi:namedview
     pagecolor="#ffffff"
     bordercolor="#666666"
     borderopacity="1"
     objecttolerance="10"
     gridtolerance="10"
     guidetolerance="10"
     inkscape:pageopacity="0"
     inkscape:pageshadow="2"
     inkscape:window-width="2880"
     inkscape:window-height="1526"
     id="namedview12"
     showgrid="false"
     inkscape:zoom="1.220625"
     inkscape:cx="406.34921"
     inkscape:cy="194.709"
     inkscape:window-x="-11"
     inkscape:window-y="-11"
     inkscape:window-maximized="1"
     inkscape:current-layer="g18" />
  <g
     inkscape:groupmode="layer"
     inkscape:label="Image"
     id="g18">
    <path
       style="fill:#000000;stroke-width:1.69312"
       d="m 90.554709,369.22611 c -40.03401,-10.91923 -46.24429,-13.75206 -50.20427,-22.90079 -1.41075,-3.25926 -3.6443,-8.42797 -4.96344,-11.48602 -4.59037,-10.64146 -3.59062,-15.63039 11.60921,-57.93197 12.07076,-33.59327 28.32282,-83.7474 28.29447,-87.31718 -0.0142,-1.79565 -0.66062,-4.2657 -1.43636,-5.489 -0.77574,-1.22328 -15.43074,-5.89468 -32.56667,-10.38091 C 1.3348592,163.26053 0.81924921,163.01859 0.81924921,154.7308 c 0,-3.57539 0.67930999,-6.50072 1.50957999,-6.50072 0.83026,0 1.99517,-1.93476 2.58867,-4.29947 0.59351,-2.36472 3.43798,-6.74567 6.3210498,-9.73545 2.88308,-2.98979 7.03167,-8.24656 9.21911,-11.68172 2.18743,-3.43516 6.09222,-8.45716 8.67731,-11.16001 2.58509,-2.70284 7.75189,-8.27321 11.48179,-12.378593 38.37698,-42.24032 69.227711,-74.19004 73.118711,-75.72341 10.59823,-4.17655 34.31467,-5.39172 105.22975,-5.39172 68.97209,0 74.84377,0.23217 86.64997,3.42618 6.9654,1.8844 14.18819,4.09419 16.05063,4.91063 19.6782,8.62644 21.97416,10.08432 44.02116,27.95252 l 5.07937,4.11661 115.25582,1.21983 c 63.3907,0.6709 117.11267,0.75379 119.38215,0.18418 4.74389,-1.19064 10.01812,-9.12236 10.01812,-15.0659 0,-2.23092 0.91428,-4.97051 2.03174,-6.08797 4.48568,-4.48568 32.45649,-1.29347 47.76265,5.45098 2.87763,1.26799 8.53223,3.55034 12.56577,5.07189 13.8667,5.23085 33.07576,19.8474 53.33963,40.58716 11.02114,11.279973 21.97948,23.366173 24.35198,26.858233 l 4.3136,6.34921 h 26.8649 26.865 v 33.86243 33.86244 h -28.9299 -28.9299 l -10.18871,9.93925 c -10.19911,9.94936 -26.69321,19.63632 -35.8989,21.08342 -9.87332,1.55203 -23.00863,-8.47563 -23.03042,-17.58172 -0.003,-1.45404 -1.55982,-4.31118 -3.45854,-6.34921 -3.42434,-3.6756 -3.93033,-3.7055 -62.72245,-3.7055 h -59.27027 l -4.15583,4.15585 -4.15586,4.15584 v 56.57376 56.57375 l 7.61905,7.61904 c 7.04484,7.04485 7.61905,8.27204 7.61905,16.28341 0,8.29222 -0.30353,8.86539 -7.06655,13.34448 -6.88896,4.56251 -7.76994,4.69455 -35.05722,5.25498 -36.26658,0.74482 -44.33476,-0.27647 -50.94178,-6.44834 l -5.13551,-4.79729 v -69.46997 -69.46995 l -5.28376,-3.76237 c -4.86872,-3.46683 -6.05829,-3.61834 -15.14401,-1.92867 -9.73779,1.81093 -20.20715,7.70313 -20.20715,11.37264 0,1.03904 -2.70835,4.51479 -6.01858,7.72392 l -6.01857,5.83479 -83.02283,0.48475 -83.02284,0.48474 -16.35542,-4.17832 c -8.99549,-2.29807 -23.88674,-6.15949 -33.09171,-8.58091 -9.20496,-2.42141 -17.1575,-3.98137 -17.67231,-3.46656 -0.51483,0.51481 -1.2642,5.47303 -1.66532,11.01824 -0.41195,5.69526 -1.74708,10.92692 -3.06841,12.02354 -1.28654,1.06771 -2.33915,4.03012 -2.33915,6.58309 0,4.45422 -5.07117,9.19541 -15.82918,14.79924 -3.19536,1.66446 -6.96469,10.46478 -15.42685,36.01737 -2.6213,7.91535 -5.73075,16.67725 -6.9099,19.4709 -3.47367,8.22988 -7.54836,21.54073 -7.54836,24.65834 0,1.59011 1.13817,5.07342 2.52925,7.74072 1.39109,2.66729 2.53395,7.17634 2.53969,10.02013 0.019,9.42489 -14.35104,19.64317 -27.06834,19.24781 -2.33419,-0.0726 -10.720171,-1.89831 -18.635511,-4.05721 z"
       id="path22" />
  </g>
</svg>
