<?xml version="1.0" encoding="UTF-8" standalone="no"?>
<svg
   xmlns:dc="http://purl.org/dc/elements/1.1/"
   xmlns:cc="http://creativecommons.org/ns#"
   xmlns:rdf="http://www.w3.org/1999/02/22-rdf-syntax-ns#"
   xmlns:svg="http://www.w3.org/2000/svg"
   xmlns="http://www.w3.org/2000/svg"
   xmlns:sodipodi="http://sodipodi.sourceforge.net/DTD/sodipodi-0.dtd"
   xmlns:inkscape="http://www.inkscape.org/namespaces/inkscape"
   version="1.1"
   id="svg996"
   width="1300"
   height="1016"
   viewBox="0 0 1300 1016"
   sodipodi:docname="Phaser1.svg"
   inkscape:version="1.0.1 (3bc2e813f5, 2020-09-07)">
  <metadata
     id="metadata1002">
    <rdf:RDF>
      <cc:Work
         rdf:about="">
        <dc:format>image/svg+xml</dc:format>
        <dc:type
           rdf:resource="http://purl.org/dc/dcmitype/StillImage" />
        <dc:title></dc:title>
      </cc:Work>
    </rdf:RDF>
  </metadata>
  <defs
     id="defs1000" />
  <sodipodi:namedview
     pagecolor="#ffffff"
     bordercolor="#666666"
     borderopacity="1"
     objecttolerance="10"
     gridtolerance="10"
     guidetolerance="10"
     inkscape:pageopacity="0"
     inkscape:pageshadow="2"
     inkscape:window-width="2880"
     inkscape:window-height="1526"
     id="namedview998"
     showgrid="false"
     inkscape:zoom="0.99212598"
     inkscape:cx="650"
     inkscape:cy="508"
     inkscape:window-x="-11"
     inkscape:window-y="-11"
     inkscape:window-maximized="1"
     inkscape:current-layer="g1004" />
  <g
     inkscape:groupmode="layer"
     inkscape:label="Image"
     id="g1004">
    <path
       style="fill:#000000"
       d="m 888.10401,966.33787 c -1.2404,-3.2326 3.3026,-14.6426 13.2771,-33.3458 1.3199,-2.475 2.4045,-5.2554 2.4101,-6.1786 0.01,-0.9232 0.5755,-2.2732 1.2662,-3 2.2602,-2.3783 7.7614,-21.085 7.7404,-26.3214 -0.024,-6.0259 0.4379,-4.3418 -13.9901,-51 -7.4035,-23.942 -11.1318,-36.1769 -19.5025,-64 -3.4748,-11.55 -11.3485,-37.425 -17.4972,-57.5 -6.1486,-20.075 -13.6357,-44.60001 -16.638,-54.50001 -3.0023,-9.9 -8.3935,-27.34073 -11.9804,-38.75719 l -6.5218,-20.75718 3.0201,-3.66395 c 1.6611,-2.01517 2.8057,-4.01093 2.5436,-4.43503 -0.2621,-0.4241 -2.3786,-1.00527 -4.7032,-1.29149 -6.8783,-0.84688 -127.1074,-2.77004 -128.9508,-2.06267 -1.2385,0.47525 -1.5408,1.39306 -1.1321,3.43668 0.3111,1.55531 0.071,3.08909 -0.5431,3.46857 -0.6054,0.37416 -1.1007,2.4518 -1.1007,4.61698 0,3.45601 0.9747,5.1026 7.9824,13.48525 9.09,10.87347 13.0905,16.54464 14.9545,21.19993 1.8671,4.6627 0.9888,14.87156 -1.7278,20.08342 -1.3626,2.61411 -2.0001,5.16146 -1.6454,6.57463 0.5171,2.06011 -2.568,4.67762 -28.8231,24.45456 -16.1713,12.1811 -30.1534,22.1475 -31.0714,22.1475 -0.9181,0 -1.6692,0.675 -1.6692,1.5 0,0.825 -0.4586,1.5 -1.019,1.5 -0.5604,0 -5.6837,2.25 -11.385,5 -18.3685,8.8599 13.102,17.5146 -278.3854,-76.55846 -138.99084,-44.85715 -254.17312,-82.07255 -255.96062,-82.70089 -1.94906,-0.68513 -3.25,-1.82488 -3.25,-2.84731 0,-1.1666 -2.99469,-3.1426 -9.48521,-6.25866 -13.00236,-6.24234 -22.61705,-13.01726 -31.63959,-22.29458 -13.3803,-13.75813 -22.64554,-30.27796 -27.39226,-48.84011 -2.47819,-9.69103 -2.58734,-11.46762 -3.53281,-57.5 -0.53659,-26.125 -1.38063,-65.45735 -1.87566,-87.40522 -0.8043,-35.66066 -0.72748,-40.44714 0.72226,-45 0.89226,-2.80213 1.97801,-5.24478 2.41278,-5.42811 0.43477,-0.18334 0.79049,-1.00226 0.79049,-1.81983 0,-0.81757 1.34819,-3.44602 2.99598,-5.841 3.49493,-5.07971 4.96978,-8.47543 6.0831,-14.00584 2.81975,-14.00713 2.42585,-12.94829 10.64617,-28.61743 5.57031,-10.61784 9.52154,-16.10736 17.16928,-23.85364 8.08938,-8.19362 24.99674,-19.47223 31.70521,-21.15001 2.69514,-0.67405 5.35026,-1.8058 5.90026,-2.515 0.76602,-0.98775 48.84932,-3.51523 205.5,-10.80203 112.475,-5.23191 209.14012,-9.80429 214.81132,-10.16085 9.8829,-0.62137 10.3339,-0.56163 10.8568,1.43784 0.3057,1.1689 2.3863,2.97721 4.732,4.11278 2.3026,1.11466 5.5785,3.49403 7.2797,5.2875 4.612,4.86201 11.8161,15.87411 13.8236,21.13058 l 1.7683,4.63026 h 5.2186 5.2187 l 1.1875,-10.75 c 2.0755,-18.78793 1.717,-17.69652 6.9235,-21.07401 7.5684,-4.90969 16.0583,-11.02039 25.8266,-18.58903 5.0306,-3.89783 13.5093,-10.23696 18.8415,-14.08696 5.3322,-3.85 15.3912,-11.14079 22.3534,-16.20176 6.9622,-5.06097 16.7085,-12.13461 21.6585,-15.71921 19.4657,-14.096265 31.261,-22.792165 37,-27.277665 3.3,-2.57922 7.575,-5.22231 9.5,-5.87354 1.925,-0.65122 14.525,-1.703 28,-2.33727 13.475,-0.63427 31.25,-1.60366 39.5,-2.1542 8.25,-0.55053 24.3356,-1.39858 35.7459,-1.88455 22.6692,-0.96551 24.7796,-1.52981 29.9873,-8.01852 3.6605,-4.56087 29.3184,-27.75972 31.3798,-28.37233 1.0378,-0.30844 5.487,-1.24419 9.887,-2.07946 4.4,-0.83526 15.65,-3.12358 25,-5.08515 53.1898,-11.15889 49.9225,-10.62001 54.4555,-8.98111 1.9495,0.70483 7.2969,2.90225 11.8831,4.88314 4.5863,1.9809 9.8178,3.60163 11.6256,3.60163 3.33949,0 6.22729,1.13457 24.03579,9.44325 5.5,2.56607 13.6,6.31879 18,8.33938 4.4,2.02058 12.6408,6.0516 18.313,8.95782 l 10.3129,5.28402 54.6871,-0.12431 c 35.8186,-0.0814 55.1261,-0.47943 55.9598,-1.15357 0.7756,-0.62722 4.4732,-0.80989 9.4662,-0.46766 7.9836,0.54721 8.2784,0.65972 11.5034,4.39133 5.1192,5.92322 8.5206,9.32974 9.3159,9.32974 0.3987,0 1.0072,1.125 1.3523,2.5 0.3451,1.375 1.0689,2.5 1.6085,2.5 0.5395,0 0.9809,0.49345 0.9809,1.09655 0,0.6031 1.8,3.14146 4,5.64079 2.2,2.49933 4,5.07169 4,5.71636 0,0.64466 1.3902,2.49381 3.0893,4.10921 1.6991,1.6154 3.7886,4.28709 4.6434,5.937085 0.8548,1.65 2.6146,3.99101 3.9107,5.20225 2.886,2.69698 2.8352,-2.12518 0.8889,84.29775 -0.7989,35.475 -1.923,87.225 -2.4981,115 -1.4059,67.90584 -1.5858,71.99118 -3.3581,76.23282 -1.6903,4.04535 -3.3805,5.18858 -9.1761,6.20643 -7.6669,1.34651 -15.8352,5.9763 -25.1902,14.27785 -3.1954,2.83559 -10.2822,9.12176 -15.7485,13.96926 l -9.9386,8.81364 -60.0614,0.5 -60.0613,0.5 -4.6968,2.31345 c -2.5832,1.2724 -7.869,5.25047 -11.7462,8.84015 -5.5998,5.18449 -7.9201,8.28363 -11.2829,15.07015 -3.9951,8.06242 -4.2536,9.11309 -4.5901,18.65986 -0.3354,9.51196 -0.021,11.49058 5.2675,33.11639 3.0933,12.65 6.7533,27.89681 8.1333,33.88179 4.5908,19.90933 8.6579,28.80353 21.2539,46.47872 3.7782,5.30172 10.8398,15.48949 15.6924,22.63949 4.8526,7.15 9.6901,14.125 10.75,15.5 4.1378,5.36774 23.6894,34.19813 27.9414,41.20178 4.0337,6.64406 10.5768,20.30303 13.5558,28.29822 2.7527,7.38801 5.5004,18.90871 10.6135,44.50001 5.6921,28.4896 13.1723,65.2076 23.6318,116 7.6398,37.1003 7.9636,39.0238 7.9706,47.3556 0.01,10.6197 -4.0777,23.3783 -10.9367,34.1444 -1.0512,1.65 -1.9442,4.1851 -1.9844,5.6336 -0.093,3.3368 -7.054,9.8664 -10.5188,9.8664 -1.342,0 -3.9391,0.8845 -5.7714,1.9656 -1.8323,1.081 -4.8955,2.0935 -6.8071,2.25 -1.9117,0.1564 -3.9922,0.9459 -4.6233,1.7544 -0.7711,0.9879 -3.0669,1.4798 -7,1.5 -3.2189,0.016 -6.1326,0.4137 -6.475,0.8826 -0.5985,0.8199 -12.2176,1.9038 -33.3775,3.1137 -14.7262,0.842 -21.2981,1.4628 -28,2.6447 -3.3,0.582 -9.2771,0.8617 -13.2825,0.6217 -4.0054,-0.2401 -7.4996,-0.085 -7.7648,0.3438 -0.2653,0.4292 -6.4381,0.7784 -13.7175,0.7759 -7.2794,0 -21.78519,0.4757 -32.23519,1.0625 -10.45,0.5868 -34.8766,1.071 -54.2814,1.076 -31.9056,0.01 -35.3421,-0.1492 -35.9162,-1.6451 z m -74.0753,-387.59581 c 1.0802,-3.06081 -0.4963,-9.87881 -2.5868,-11.18706 -1.6173,-1.01209 -10.3865,-1.50576 -35.8828,-2.02006 -45.9129,-0.92613 -47.4584,-1.12995 -50.3047,-6.63407 -2.0396,-3.94413 -1.8675,-6.2891 1.7122,-23.33638 2.7664,-13.17402 3.1592,-16.96172 3.1184,-30.07243 -0.069,-22.32412 -4.6936,-48.93066 -10.846,-62.4037 l -2.4675,-5.4037 -26.735,0.60027 c -22.8304,0.51261 -27.9033,0.91113 -34.7349,2.72867 -10.7289,2.85439 -17.6072,6.96609 -26.0298,15.56003 -10.1778,10.3849 -17.081,25.45102 -13.944,30.43283 0.5145,0.81708 1.1954,11.3856 1.5131,23.4856 0.5313,20.23639 0.7533,22.30305 2.7692,25.78042 1.2053,2.07923 2.1915,4.89173 2.1915,6.25 0,1.52852 0.5716,2.46958 1.5,2.46958 0.8907,0 1.5,0.91772 1.5,2.25945 0,1.2427 0.9438,2.84888 2.0974,3.56929 1.1535,0.72041 1.8404,1.5668 1.5263,1.88086 -2.3957,2.39575 11.0881,13.77119 23.2838,19.64296 l 8.4075,4.04791 41.5925,0.82419 c 22.8758,0.4533 50.8175,1.19277 62.0925,1.64327 33.8386,1.35204 49.7215,1.31475 50.2271,-0.11793 z"
       id="path1008" />
  </g>
</svg>
